<svg width="168" height="68" viewBox="0 0 168 68" fill="none" xmlns="http://www.w3.org/2000/svg">
<path d="M3.6236 10.7461H4.44112L9.01481 4.53627H13.1024L7.46816 12.0894L13.6106 20.171H9.56719L4.77255 14.0272H3.6236V20.171H0V4.53627H3.6236V10.7461Z" fill="#2B2B2B"/>
<path d="M14.802 20.171V4.53627H21.4968C22.2481 4.53627 22.933 4.69042 23.5517 4.99871C24.1851 5.307 24.7227 5.71071 25.1646 6.20985C25.6213 6.70898 25.9748 7.27418 26.2252 7.90544C26.4903 8.5367 26.6229 9.1753 26.6229 9.82124C26.6229 10.5112 26.4977 11.1718 26.2473 11.8031C26.0116 12.4344 25.6728 12.9996 25.2309 13.4987C24.8037 13.9978 24.2808 14.3942 23.6622 14.6878C23.0435 14.9814 22.3585 15.1282 21.6073 15.1282H18.4256V20.171H14.802ZM18.4256 11.9793H21.3864C21.8135 11.9793 22.1818 11.7958 22.4911 11.4288C22.8005 11.0617 22.9551 10.5259 22.9551 9.82124C22.9551 9.45423 22.9036 9.1386 22.8004 8.87435C22.7121 8.6101 22.5869 8.3899 22.4248 8.21373C22.2628 8.03757 22.0787 7.91278 21.8725 7.83938C21.6662 7.7513 21.46 7.70725 21.2538 7.70725H18.4256V11.9793Z" fill="#2B2B2B"/>
<path d="M31.8386 4.53627H35.1086L40.8313 20.171H37.1193L35.9041 16.6697H31.021L29.8279 20.171H26.1159L31.8386 4.53627ZM35.3075 14.1813L33.4736 8.65415L31.5955 14.1813H35.3075Z" fill="#2B2B2B"/>
<path d="M53.468 17V20.171H42.4425V4.53627H53.2691V7.70725H46.0661V10.7461H52.2527V13.6749H46.0661V17H53.468Z" fill="#2B2B2B"/>
<path d="M68.5935 16.1632C68.5935 16.8385 68.4535 17.4257 68.1737 17.9249C67.8938 18.424 67.5108 18.8424 67.0247 19.1801C66.5386 19.503 65.9715 19.7526 65.3234 19.9288C64.6753 20.0902 63.9903 20.171 63.2685 20.171H55.6236V4.53627H64.3512C64.8962 4.53627 65.3897 4.65371 65.8316 4.8886C66.2735 5.12349 66.6491 5.43178 66.9584 5.81347C67.2678 6.18048 67.5035 6.60622 67.6655 7.09067C67.8422 7.56045 67.9306 8.04491 67.9306 8.54404C67.9306 9.29275 67.7391 9.99741 67.3561 10.658C66.9879 11.3187 66.4282 11.8178 65.6769 12.1554C66.5755 12.4197 67.2825 12.8895 67.7981 13.5648C68.3283 14.2401 68.5935 15.1062 68.5935 16.1632ZM64.9036 15.4365C64.9036 14.9521 64.7637 14.541 64.4838 14.2034C64.2039 13.8657 63.8504 13.6969 63.4232 13.6969H59.2472V17.1101H63.2685C63.7399 17.1101 64.1303 16.956 64.4396 16.6477C64.7489 16.3394 64.9036 15.9357 64.9036 15.4365ZM59.2472 7.61917V10.8562H62.8046C63.2023 10.8562 63.5558 10.7241 63.8651 10.4598C64.1744 10.1956 64.3291 9.78454 64.3291 9.22669C64.3291 8.71287 64.1892 8.3165 63.9093 8.03757C63.6442 7.75864 63.3201 7.61917 62.9371 7.61917H59.2472Z" fill="#2B2B2B"/>
<path d="M77.7514 20.3031C76.5877 20.3031 75.5271 20.0756 74.5697 19.6205C73.6122 19.1654 72.7947 18.5708 72.1171 17.8368C71.4395 17.0881 70.9093 16.2366 70.5263 15.2824C70.158 14.3282 69.9739 13.3446 69.9739 12.3316C69.9739 11.304 70.1654 10.313 70.5484 9.35881C70.9461 8.40458 71.4911 7.56779 72.1834 6.84845C72.8905 6.11442 73.7227 5.53454 74.6802 5.10881C75.6376 4.66839 76.6835 4.44819 77.8177 4.44819C78.9813 4.44819 80.0419 4.67573 80.9994 5.13083C81.9568 5.58593 82.7744 6.18782 83.4519 6.93653C84.1295 7.68523 84.6524 8.5367 85.0207 9.49093C85.3889 10.4452 85.5731 11.4141 85.5731 12.3977C85.5731 13.4253 85.3742 14.4162 84.9765 15.3705C84.5935 16.3247 84.0559 17.1688 83.3636 17.9029C82.6712 18.6222 81.8464 19.2021 80.8889 19.6425C79.9314 20.0829 78.8856 20.3031 77.7514 20.3031ZM73.6638 12.3756C73.6638 12.9775 73.7522 13.5648 73.9289 14.1373C74.1057 14.6952 74.3635 15.1943 74.7023 15.6347C75.0558 16.0751 75.4903 16.4275 76.0059 16.6917C76.5214 16.956 77.1106 17.0881 77.7735 17.0881C78.4658 17.0881 79.0697 16.9486 79.5853 16.6697C80.1008 16.3908 80.528 16.0311 80.8668 15.5907C81.2056 15.1356 81.456 14.6291 81.618 14.0712C81.7948 13.4987 81.8832 12.9188 81.8832 12.3316C81.8832 11.7297 81.7948 11.1498 81.618 10.592C81.4413 10.0194 81.1761 9.52029 80.8226 9.09456C80.4691 8.65415 80.0346 8.30915 79.519 8.05959C79.0182 7.79534 78.4363 7.66321 77.7735 7.66321C77.0812 7.66321 76.4772 7.80268 75.9617 8.08161C75.4609 8.34586 75.0337 8.69819 74.6802 9.1386C74.3414 9.57902 74.0836 10.0855 73.9068 10.658C73.7448 11.2159 73.6638 11.7884 73.6638 12.3756Z" fill="#2B2B2B"/>
<path d="M99.2006 0C99.2006 0.484457 99.0975 0.932212 98.8913 1.34327C98.685 1.73964 98.3904 2.08463 98.0075 2.37824C97.6392 2.65717 97.1973 2.87738 96.6817 3.03886C96.1662 3.20035 95.5917 3.28109 94.9583 3.28109C94.3249 3.28109 93.7504 3.20035 93.2349 3.03886C92.7193 2.87738 92.2701 2.65717 91.8871 2.37824C91.5188 2.08463 91.2316 1.73964 91.0254 1.34327C90.8192 0.932212 90.716 0.484457 90.716 0H92.9035C92.9035 0.190846 92.955 0.374353 93.0581 0.550519C93.176 0.712004 93.3233 0.858809 93.5 0.990933C93.6915 1.10838 93.9125 1.2038 94.1629 1.2772C94.4133 1.35061 94.6784 1.38731 94.9583 1.38731C95.4886 1.38731 95.9452 1.25518 96.3282 0.990933C96.7259 0.726684 96.9616 0.396373 97.0353 0H99.2006ZM91.3789 14.5557L98.7587 4.53627H101.454V20.171H97.8307V10.3938L90.5393 20.171H87.7332V4.53627H91.3789V14.5557Z" fill="#2B2B2B"/>
<path d="M11.379 42.1917H0.0220952V26.557H3.6457V39.0207H8.97062V26.557H12.5942V39.0207H14.87V45.9793H11.379V42.1917Z" fill="#2B2B2B"/>
<path d="M27.8773 39.0207V42.1917H16.8519V26.557H27.6785V29.728H20.4755V32.7668H26.6621V35.6956H20.4755V39.0207H27.8773Z" fill="#2B2B2B"/>
<path d="M43.6436 26.557V42.1917H40.02V35.7837H33.7671V42.1917H30.1435V26.557H33.7671V32.6127H40.02V26.557H43.6436Z" fill="#2B2B2B"/>
<path d="M58.6883 29.728H53.9157V42.1917H50.2921V29.728H45.4975V26.557H58.6883V29.728Z" fill="#2B2B2B"/>
<path d="M60.5243 42.1917V26.557H67.2191C67.9703 26.557 68.6553 26.7111 69.2739 27.0194C69.9073 27.3277 70.445 27.7314 70.8869 28.2306C71.3435 28.7297 71.697 29.2949 71.9474 29.9262C72.2126 30.5574 72.3452 31.196 72.3452 31.842C72.3452 32.532 72.22 33.1926 71.9695 33.8238C71.7339 34.4551 71.3951 35.0203 70.9532 35.5194C70.526 36.0186 70.0031 36.4149 69.3844 36.7086C68.7658 37.0022 68.0808 37.149 67.3296 37.149H64.1479V42.1917H60.5243ZM64.1479 34H67.1086C67.5358 34 67.904 33.8165 68.2134 33.4495C68.5227 33.0825 68.6774 32.5466 68.6774 31.842C68.6774 31.475 68.6258 31.1593 68.5227 30.8951C68.4343 30.6308 68.3091 30.4106 68.1471 30.2345C67.9851 30.0583 67.8009 29.9335 67.5947 29.8601C67.3885 29.772 67.1823 29.728 66.976 29.728H64.1479V34Z" fill="#2B2B2B"/>
<path d="M11.0255 61.0415V64.2124H0V48.5777H10.8266V51.7487H3.6236V54.7876H9.81024V57.7163H3.6236V61.0415H11.0255Z" fill="#2B2B2B"/>
<path d="M12.0985 61.0415H12.8276C13.2253 61.0415 13.5715 60.9167 13.8661 60.6671C14.1754 60.4175 14.4405 59.9918 14.6615 59.3899C14.8825 58.788 15.0739 57.9806 15.236 56.9676C15.4127 55.94 15.5674 54.6408 15.7 53.07L16.0977 48.5777H26.2835V61.0415H28.5593V68H25.0683V64.2124H15.5674V68H12.0985V61.0415ZM22.6599 61.0415V51.7487H19.3678L19.1689 53.9948C19.0069 55.6978 18.7933 57.1218 18.5281 58.2668C18.2777 59.4119 17.9463 60.3368 17.5339 61.0415H22.6599Z" fill="#2B2B2B"/>
<path d="M34.1991 58.5972L41.5789 48.5777H44.2745V64.2124H40.6509V54.4352L33.3595 64.2124H30.5534V48.5777H34.1991V58.5972Z" fill="#2B2B2B"/>
<path d="M60.9054 48.5777V64.2124H57.2818V57.8044H51.0289V64.2124H47.4053V48.5777H51.0289V54.6334H57.2818V48.5777H60.9054Z" fill="#2B2B2B"/>
<path d="M70.8682 64.3446C69.7046 64.3446 68.644 64.117 67.6865 63.6619C66.7291 63.2068 65.9116 62.6123 65.234 61.8782C64.5564 61.1295 64.0261 60.2781 63.6431 59.3238C63.2749 58.3696 63.0908 57.386 63.0908 56.3731C63.0908 55.3454 63.2822 54.3545 63.6652 53.4003C64.0629 52.446 64.608 51.6092 65.3003 50.8899C66.0073 50.1559 66.8396 49.576 67.797 49.1503C68.7545 48.7098 69.8003 48.4896 70.9345 48.4896C72.0982 48.4896 73.1588 48.7172 74.1162 49.1723C75.0737 49.6274 75.8912 50.2293 76.5688 50.978C77.2464 51.7267 77.7693 52.5782 78.1375 53.5324C78.5058 54.4866 78.6899 55.4555 78.6899 56.4391C78.6899 57.4668 78.4911 58.4577 78.0933 59.4119C77.7104 60.3662 77.1727 61.2103 76.4804 61.9443C75.7881 62.6636 74.9632 63.2435 74.0058 63.6839C73.0483 64.1244 72.0025 64.3446 70.8682 64.3446ZM66.7806 56.4171C66.7806 57.019 66.869 57.6062 67.0458 58.1788C67.2225 58.7366 67.4803 59.2358 67.8191 59.6762C68.1726 60.1166 68.6072 60.4689 69.1227 60.7332C69.6383 60.9974 70.2275 61.1295 70.8903 61.1295C71.5826 61.1295 72.1866 60.9901 72.7021 60.7111C73.2177 60.4322 73.6449 60.0725 73.9837 59.6321C74.3224 59.177 74.5729 58.6706 74.7349 58.1127C74.9116 57.5402 75 56.9603 75 56.3731C75 55.7712 74.9116 55.1913 74.7349 54.6334C74.5581 54.0609 74.293 53.5617 73.9395 53.136C73.5859 52.6956 73.1514 52.3506 72.6358 52.101C72.135 51.8368 71.5532 51.7047 70.8903 51.7047C70.198 51.7047 69.5941 51.8441 69.0785 52.1231C68.5777 52.3873 68.1505 52.7396 67.797 53.18C67.4582 53.6205 67.2005 54.1269 67.0237 54.6995C66.8617 55.2573 66.7806 55.8299 66.7806 56.4171Z" fill="#2B2B2B"/>
<path d="M80.8501 48.5777H92.5826V51.7487H84.4958V54.7435H88.2961C89.9901 54.7435 91.3084 55.1546 92.2512 55.9767C93.2086 56.7841 93.6873 57.9292 93.6873 59.4119C93.6873 60.9387 93.2307 62.1205 92.3174 62.9573C91.4042 63.794 90.1153 64.2124 88.4508 64.2124H80.8501V48.5777ZM88.031 61.1516C88.6644 61.1516 89.1431 60.9974 89.4672 60.6891C89.806 60.3662 89.9753 59.9257 89.9753 59.3679C89.9753 58.8541 89.8133 58.4357 89.4893 58.1127C89.1652 57.775 88.6791 57.6062 88.031 57.6062H84.4958V61.1516H88.031Z" fill="#2B2B2B"/>
<path d="M102.544 64.3446C101.38 64.3446 100.319 64.117 99.362 63.6619C98.4045 63.2068 97.587 62.6123 96.9094 61.8782C96.2318 61.1295 95.7016 60.2781 95.3186 59.3238C94.9503 58.3696 94.7662 57.386 94.7662 56.3731C94.7662 55.3454 94.9577 54.3545 95.3407 53.4003C95.7384 52.446 96.2834 51.6092 96.9757 50.8899C97.6828 50.1559 98.515 49.576 99.4725 49.1503C100.43 48.7098 101.476 48.4896 102.61 48.4896C103.774 48.4896 104.834 48.7172 105.792 49.1723C106.749 49.6274 107.567 50.2293 108.244 50.978C108.922 51.7267 109.445 52.5782 109.813 53.5324C110.181 54.4866 110.365 55.4555 110.365 56.4391C110.365 57.4668 110.167 58.4577 109.769 59.4119C109.386 60.3662 108.848 61.2103 108.156 61.9443C107.464 62.6636 106.639 63.2435 105.681 63.6839C104.724 64.1244 103.678 64.3446 102.544 64.3446ZM98.4561 56.4171C98.4561 57.019 98.5445 57.6062 98.7212 58.1788C98.898 58.7366 99.1558 59.2358 99.4946 59.6762C99.8481 60.1166 100.283 60.4689 100.798 60.7332C101.314 60.9974 101.903 61.1295 102.566 61.1295C103.258 61.1295 103.862 60.9901 104.378 60.7111C104.893 60.4322 105.32 60.0725 105.659 59.6321C105.998 59.177 106.248 58.6706 106.41 58.1127C106.587 57.5402 106.675 56.9603 106.675 56.3731C106.675 55.7712 106.587 55.1913 106.41 54.6334C106.234 54.0609 105.968 53.5617 105.615 53.136C105.261 52.6956 104.827 52.3506 104.311 52.101C103.81 51.8368 103.229 51.7047 102.566 51.7047C101.873 51.7047 101.27 51.8441 100.754 52.1231C100.253 52.3873 99.826 52.7396 99.4725 53.18C99.1337 53.6205 98.8759 54.1269 98.6991 54.6995C98.5371 55.2573 98.4561 55.8299 98.4561 56.4171Z" fill="#2B2B2B"/>
<path d="M112.526 64.2124V48.5777H119.22C119.972 48.5777 120.657 48.7319 121.275 49.0402C121.909 49.3484 122.446 49.7522 122.888 50.2513C123.345 50.7504 123.698 51.3156 123.949 51.9469C124.214 52.5782 124.346 53.2168 124.346 53.8627C124.346 54.5527 124.221 55.2133 123.971 55.8446C123.735 56.4758 123.396 57.041 122.954 57.5402C122.527 58.0393 122.004 58.4357 121.386 58.7293C120.767 59.0229 120.082 59.1697 119.331 59.1697H116.149V64.2124H112.526ZM116.149 56.0207H119.11C119.537 56.0207 119.905 55.8372 120.215 55.4702C120.524 55.1032 120.679 54.5674 120.679 53.8627C120.679 53.4957 120.627 53.1801 120.524 52.9158C120.436 52.6516 120.31 52.4313 120.148 52.2552C119.986 52.079 119.802 51.9542 119.596 51.8808C119.39 51.7927 119.184 51.7487 118.977 51.7487H116.149V56.0207Z" fill="#2B2B2B"/>
<path d="M125.384 56.263C125.384 55.3234 125.561 54.3912 125.915 53.4663C126.268 52.5268 126.784 51.69 127.461 50.956C128.139 50.2219 128.964 49.6274 129.936 49.1723C130.908 48.7172 132.013 48.4896 133.25 48.4896C134.723 48.4896 135.997 48.8053 137.073 49.4365C138.163 50.0678 138.973 50.8899 139.503 51.9029L136.719 53.8407C136.542 53.4296 136.314 53.092 136.034 52.8277C135.769 52.5488 135.474 52.3286 135.15 52.1671C134.826 51.9909 134.495 51.8735 134.156 51.8148C133.817 51.7414 133.486 51.7047 133.162 51.7047C132.47 51.7047 131.866 51.8441 131.35 52.1231C130.834 52.402 130.407 52.7617 130.069 53.2021C129.73 53.6425 129.479 54.1416 129.317 54.6995C129.155 55.2573 129.074 55.8225 129.074 56.3951C129.074 57.0117 129.17 57.6062 129.361 58.1788C129.553 58.7513 129.825 59.2578 130.179 59.6982C130.547 60.1386 130.982 60.4909 131.483 60.7552C131.998 61.0048 132.573 61.1295 133.206 61.1295C133.53 61.1295 133.862 61.0928 134.2 61.0194C134.554 60.9313 134.885 60.8066 135.195 60.6451C135.519 60.4689 135.813 60.2487 136.078 59.9845C136.344 59.7055 136.557 59.3679 136.719 58.9715L139.68 60.7111C139.444 61.2837 139.091 61.7975 138.619 62.2526C138.163 62.7077 137.632 63.0894 137.028 63.3977C136.425 63.706 135.784 63.9408 135.106 64.1023C134.429 64.2638 133.766 64.3446 133.118 64.3446C131.983 64.3446 130.938 64.117 129.98 63.6619C129.037 63.1921 128.22 62.5756 127.528 61.8122C126.85 61.0488 126.32 60.1826 125.937 59.2137C125.568 58.2448 125.384 57.2612 125.384 56.263Z" fill="#2B2B2B"/>
<path d="M153.305 51.7487H148.532V64.2124H144.909V51.7487H140.114V48.5777H153.305V51.7487Z" fill="#2B2B2B"/>
<path d="M168 60.2047C168 60.88 167.86 61.4672 167.58 61.9663C167.3 62.4655 166.917 62.8839 166.431 63.2215C165.945 63.5445 165.378 63.794 164.73 63.9702C164.082 64.1317 163.397 64.2124 162.675 64.2124H155.03V48.5777H163.758C164.303 48.5777 164.796 48.6952 165.238 48.9301C165.68 49.1649 166.056 49.4732 166.365 49.8549C166.674 50.2219 166.91 50.6477 167.072 51.1321C167.249 51.6019 167.337 52.0864 167.337 52.5855C167.337 53.3342 167.146 54.0389 166.763 54.6995C166.394 55.3601 165.835 55.8592 165.083 56.1969C165.982 56.4611 166.689 56.9309 167.205 57.6062C167.735 58.2815 168 59.1477 168 60.2047ZM164.31 59.478C164.31 58.9935 164.17 58.5825 163.89 58.2448C163.61 57.9072 163.257 57.7383 162.83 57.7383H158.654V61.1516H162.675C163.146 61.1516 163.537 60.9974 163.846 60.6891C164.155 60.3808 164.31 59.9771 164.31 59.478ZM158.654 51.6606V54.8977H162.211C162.609 54.8977 162.962 54.7655 163.272 54.5013C163.581 54.237 163.736 53.826 163.736 53.2681C163.736 52.7543 163.596 52.3579 163.316 52.079C163.051 51.8001 162.727 51.6606 162.344 51.6606H158.654Z" fill="#2B2B2B"/>
</svg>
