<svg width="121" height="90" viewBox="0 0 121 90" fill="none" xmlns="http://www.w3.org/2000/svg">
<path d="M94.4375 16.563V23.0387L105.49 48.153H112.702V13.9062L94.4375 16.563Z" fill="#5386E4"/>
<path d="M96.9926 23.9641C89.5974 21.0832 85.9735 20.5415 85.9735 20.5415L79.2881 21.7931V48.3602H85.9735V58.4267H105.841V28.4971C103.039 26.714 100.077 25.1966 96.9926 23.9641Z" fill="#F77F00"/>
<path d="M75.7369 13.0469L61.8535 16.5006V47.5302L75.7328 48.1529L75.7369 13.0469Z" fill="#5386E4"/>
<path d="M79.2857 16.3968L75.7344 13.0469V48.1529H79.2857V21.7933L80.9461 21.4819V18.0573L79.2857 16.3968Z" fill="#5386E4"/>
<path d="M119.76 33.0007L112.703 34.1776V59.1528H119.76V33.0007Z" fill="#5386E4"/>
<path d="M50.4375 49.3983V0L69.1175 14.7365L65.174 15.7742L58.2125 9.75512V48.0492L50.4375 49.3983Z" fill="#5386E4"/>
<path d="M50.4361 49.4087V0C50.4361 0 34.1429 1.9282 19.6057 9.90041C5.69947 17.5219 0 24.5206 0 24.5206V49.8134L2.07556 53.3418V25.1143C2.07556 25.1143 11.0005 16.6231 21.1707 11.208C32.3787 5.24078 48.0492 2.28311 48.0492 2.28311V49.6058L50.4361 49.4087Z" fill="#5386E4"/>
<path d="M13.4915 28.9541V23.3501L45.6626 19.0952V27.2937L39.8511 27.7088V28.9541L6.43457 32.4826V29.7843L13.4915 28.9541Z" fill="#F77F00"/>
<path d="M96.3066 51.6813V28.4351C97.6744 28.85 98.9966 29.4066 100.25 30.0955C101.527 30.7991 103.364 31.9635 103.364 31.9635V51.6813H96.3066Z" fill="white"/>
<path d="M6.43457 55.3497V34.8017L39.8511 31.0657L70.258 51.3024L6.43457 55.3497Z" fill="#5386E4"/>
<path fill-rule="evenodd" clip-rule="evenodd" d="M87.3185 35.6678C88.2421 36.9225 89.0267 38.2741 89.6577 39.6985L88.294 39.024C88.844 39.9306 89.2882 40.8963 89.6224 41.9028C91.1189 46.662 89.7843 49.628 89.7843 49.628L89.1616 46.7097C89.1907 48.0958 88.9727 49.4758 88.5202 50.7861C88.5182 50.8191 88.5182 50.8521 88.5161 50.8851C89.1325 50.8457 89.8112 50.712 90.6394 50.3895C93.6552 49.2044 95.1641 42.1412 95.1641 42.1412L96.4094 43.7892C96.4094 43.7892 98.1591 40.8108 101.353 39.773C105.781 38.3201 109.18 40.1881 109.18 40.1881L108.047 41.3214C108.047 41.3214 109.218 41.3214 110.725 42.6601C111.488 43.3424 112.026 44.2405 112.269 45.2359C112.269 45.2359 114.052 45.4553 115.816 47.7384C117.339 49.7102 117.211 52.9673 117.211 52.9673C117.211 52.9673 119.886 53.8951 120.301 56.4688C120.54 57.8974 120.245 59.3644 119.471 60.5888C119.471 60.5888 121.146 64.8395 117.925 67.6955C116.681 68.7997 113.807 70.373 113.807 70.373L94.1845 78C94.1845 78 89.4008 76.0922 86 76.5C80.5898 77.1487 73.1674 80.4663 69.5 82.5C64.8862 85.0584 60.5002 87 60.5002 87L60.2574 67.148C60.2345 67.1469 60.2138 67.1459 60.191 67.1449V14.0666C60.2823 14.0666 60.3881 14.0672 60.5002 14.0679C60.9465 14.0706 61.5172 14.0741 61.8991 14.0425C63.2379 13.9408 66.1188 13.7478 67.4596 13.7333C69.3068 13.7111 71.0524 14.1297 72.5405 15.0484C73.4185 15.7202 73.7838 16.006 73.9644 16.1492C74.0681 16.2291 74.1117 16.2646 74.1595 16.298C74.1968 16.325 74.2342 16.3506 74.3027 16.3964L74.3048 16.3973C74.3255 16.3973 74.3525 16.3973 74.3857 16.3975C74.9253 16.4 76.9511 16.4089 78.5596 15.9821C79.5269 15.7302 80.7348 15.2491 81.8577 14.801C82.5862 14.5106 83.2815 14.2341 83.8523 14.0427C85.2222 13.258 86.3326 13.3462 87.6298 13.4489C88.101 13.4865 88.597 13.5257 89.1388 13.5257C91.6813 13.5257 93.0346 14.7711 94.1845 17.0293C95.8304 20.2754 94.2882 23.9284 91.3015 26.2966C89.556 27.6831 87.2147 30.3045 86.4883 32.5627C86.1105 33.7375 86.6564 34.7794 87.0259 35.3087L87.3185 35.6678ZM33.0634 35.6678C32.1398 36.9225 31.3552 38.2741 30.7243 39.6985L32.0879 39.024C31.5379 39.9306 31.0937 40.8963 30.7595 41.9028C29.2631 46.662 30.5977 49.628 30.5977 49.628L31.2203 46.7097C31.1913 48.0958 31.4092 49.4758 31.8617 50.7861C31.8637 50.8191 31.8637 50.8521 31.8658 50.8851C31.2494 50.8457 30.5707 50.712 29.7425 50.3895C26.7267 49.2044 25.2178 42.1412 25.2178 42.1412L23.9725 43.7892C23.9725 43.7892 22.2228 40.8108 19.0285 39.773C14.6013 38.3201 11.2016 40.1881 11.2016 40.1881L12.3348 41.3214C12.3348 41.3214 11.1642 41.3214 9.65735 42.6601C8.89354 43.3424 8.35596 44.2405 8.11312 45.2359C8.11312 45.2359 4.80469 45.8704 3.73577 49.1913C3.31444 50.4978 3.32066 52.9273 3.32066 52.9273C3.32066 52.9273 0.495831 53.8951 0.0807197 56.4688C-0.157969 57.8974 0.13676 59.3644 0.910943 60.5888C0.910943 60.5888 -0.764043 64.8395 2.45722 67.6955C3.70048 68.7997 6.57515 70.373 6.57515 70.373L16.5 71.5L27 77.5C27 77.5 32.0629 76.1677 35.6412 76.5C41.58 77.0515 47.1793 81.0563 50.5 82.5C55.6931 84.7578 60.5002 87 60.5002 87L60.2574 67.148H60.1246C60.1474 67.1469 60.1681 67.1459 60.191 67.1449V14.0666C60.0996 14.0666 59.9938 14.0672 59.8817 14.0679C59.4355 14.0706 58.8647 14.0741 58.4828 14.0425C57.144 13.9408 54.2632 13.7478 52.9223 13.7333C51.1602 13.7121 49.4811 14.1 48.0489 14.9446C46.5483 15.8294 45.3092 17.2028 44.0742 18.5735C43.6986 18.5735 40.9837 18.5112 39.2776 18.0587C37.6961 17.647 36.6624 16.6839 35.6703 15.7588L35.6454 15.7362L35.6412 15.7316C34.4312 14.6042 33.273 13.5257 31.2432 13.5257C28.7006 13.5257 27.3473 14.7711 26.1975 17.0293C24.5515 20.2754 26.0937 23.9284 29.0804 26.2966C30.826 27.6831 33.1672 30.3045 33.8936 32.5627C34.2714 33.7375 33.7255 34.7794 33.3561 35.3087L33.0634 35.6678Z" fill="#2B2B2B"/>
<path fill-rule="evenodd" clip-rule="evenodd" d="M87.3185 35.6678C88.2421 36.9225 89.0267 38.2741 89.6577 39.6985L88.294 39.024C88.844 39.9306 89.2882 40.8963 89.6224 41.9028C91.1189 46.662 89.7843 49.628 89.7843 49.628L89.1616 46.7097C89.1907 48.0958 88.9727 49.4758 88.5202 50.7861C88.5182 50.8191 88.5182 50.8521 88.5161 50.8851C89.1325 50.8457 89.8112 50.712 90.6394 50.3895C93.6552 49.2044 95.1641 42.1412 95.1641 42.1412L96.4094 43.7892C96.4094 43.7892 98.1591 40.8108 101.353 39.773C105.781 38.3201 109.18 40.1881 109.18 40.1881L108.047 41.3214C108.047 41.3214 109.218 41.3214 110.725 42.6601C111.488 43.3424 112.026 44.2405 112.269 45.2359C112.269 45.2359 114.052 45.4553 115.816 47.7384C117.339 49.7102 117.211 52.9673 117.211 52.9673C117.211 52.9673 119.886 53.8951 120.301 56.4688C120.54 57.8974 120.245 59.3644 119.471 60.5888C119.471 60.5888 121.146 64.8395 117.925 67.6955C116.681 68.7997 113.807 70.373 113.807 70.373L94.1845 78C94.1845 78 89.4008 76.0922 86 76.5C80.5898 77.1487 73.1674 80.4663 69.5 82.5C64.8862 85.0584 60.5002 87 60.5002 87L60.2574 67.148C60.2345 67.1469 60.2138 67.1459 60.191 67.1449V14.0666C60.2823 14.0666 60.3881 14.0672 60.5002 14.0679C60.9465 14.0706 61.5172 14.0741 61.8991 14.0425C63.2379 13.9408 66.1188 13.7478 67.4596 13.7333C69.3068 13.7111 71.0524 14.1297 72.5405 15.0484C73.4185 15.7202 73.7838 16.006 73.9644 16.1492C74.0681 16.2291 74.1117 16.2646 74.1595 16.298C74.1968 16.325 74.2342 16.3506 74.3027 16.3964L74.3048 16.3973C74.3255 16.3973 74.3525 16.3973 74.3857 16.3975C74.9253 16.4 76.9511 16.4089 78.5596 15.9821C79.5269 15.7302 80.7348 15.2491 81.8577 14.801C82.5862 14.5106 83.2815 14.2341 83.8523 14.0427C85.2222 13.258 86.3326 13.3462 87.6298 13.4489C88.101 13.4865 88.597 13.5257 89.1388 13.5257C91.6813 13.5257 93.0346 14.7711 94.1845 17.0293C95.8304 20.2754 94.2882 23.9284 91.3015 26.2966C89.556 27.6831 87.2147 30.3045 86.4883 32.5627C86.1105 33.7375 86.6564 34.7794 87.0259 35.3087L87.3185 35.6678ZM33.0634 35.6678C32.1398 36.9225 31.3552 38.2741 30.7243 39.6985L32.0879 39.024C31.5379 39.9306 31.0937 40.8963 30.7595 41.9028C29.2631 46.662 30.5977 49.628 30.5977 49.628L31.2203 46.7097C31.1913 48.0958 31.4092 49.4758 31.8617 50.7861C31.8637 50.8191 31.8637 50.8521 31.8658 50.8851C31.2494 50.8457 30.5707 50.712 29.7425 50.3895C26.7267 49.2044 25.2178 42.1412 25.2178 42.1412L23.9725 43.7892C23.9725 43.7892 22.2228 40.8108 19.0285 39.773C14.6013 38.3201 11.2016 40.1881 11.2016 40.1881L12.3348 41.3214C12.3348 41.3214 11.1642 41.3214 9.65735 42.6601C8.89354 43.3424 8.35596 44.2405 8.11312 45.2359C8.11312 45.2359 4.80469 45.8704 3.73577 49.1913C3.31444 50.4978 3.32066 52.9273 3.32066 52.9273C3.32066 52.9273 0.495831 53.8951 0.0807197 56.4688C-0.157969 57.8974 0.13676 59.3644 0.910943 60.5888C0.910943 60.5888 -0.764043 64.8395 2.45722 67.6955C3.70048 68.7997 6.57515 70.373 6.57515 70.373L16.5 71.5L27 77.5C27 77.5 32.0629 76.1677 35.6412 76.5C41.58 77.0515 47.1793 81.0563 50.5 82.5C55.6931 84.7578 60.5002 87 60.5002 87L60.2574 67.148H60.1246C60.1474 67.1469 60.1681 67.1459 60.191 67.1449V14.0666C60.0996 14.0666 59.9938 14.0672 59.8817 14.0679C59.4355 14.0706 58.8647 14.0741 58.4828 14.0425C57.144 13.9408 54.2632 13.7478 52.9223 13.7333C51.1602 13.7121 49.4811 14.1 48.0489 14.9446C46.5483 15.8294 45.3092 17.2028 44.0742 18.5735C43.6986 18.5735 40.9837 18.5112 39.2776 18.0587C37.6961 17.647 36.6624 16.6839 35.6703 15.7588L35.6454 15.7362L35.6412 15.7316C34.4312 14.6042 33.273 13.5257 31.2432 13.5257C28.7006 13.5257 27.3473 14.7711 26.1975 17.0293C24.5515 20.2754 26.0937 23.9284 29.0804 26.2966C30.826 27.6831 33.1672 30.3045 33.8936 32.5627C34.2714 33.7375 33.7255 34.7794 33.3561 35.3087L33.0634 35.6678Z" fill="#2B2B2B"/>
<path fill-rule="evenodd" clip-rule="evenodd" d="M87.3185 35.6678C88.2421 36.9225 89.0267 38.2741 89.6577 39.6985L88.294 39.024C88.844 39.9306 89.2882 40.8963 89.6224 41.9028C91.1189 46.662 89.7843 49.628 89.7843 49.628L89.1616 46.7097C89.1907 48.0958 88.9727 49.4758 88.5202 50.7861C88.5182 50.8191 88.5182 50.8521 88.5161 50.8851C89.1325 50.8457 89.8112 50.712 90.6394 50.3895C93.6552 49.2044 95.1641 42.1412 95.1641 42.1412L96.4094 43.7892C96.4094 43.7892 98.1591 40.8108 101.353 39.773C105.781 38.3201 109.18 40.1881 109.18 40.1881L108.047 41.3214C108.047 41.3214 109.218 41.3214 110.725 42.6601C111.488 43.3424 112.026 44.2405 112.269 45.2359C112.269 45.2359 114.052 45.4553 115.816 47.7384C117.339 49.7102 117.211 52.9673 117.211 52.9673C117.211 52.9673 119.886 53.8951 120.301 56.4688C120.54 57.8974 120.245 59.3644 119.471 60.5888C119.471 60.5888 121.146 64.8395 117.925 67.6955C116.681 68.7997 113.807 70.373 113.807 70.373L94.1845 78C94.1845 78 89.4008 76.0922 86 76.5C80.5898 77.1487 73.1674 80.4663 69.5 82.5C64.8862 85.0584 60.5002 87 60.5002 87L60.2574 67.148C60.2345 67.1469 60.2138 67.1459 60.191 67.1449V14.0666C60.2823 14.0666 60.3881 14.0672 60.5002 14.0679C60.9465 14.0706 61.5172 14.0741 61.8991 14.0425C63.2379 13.9408 66.1188 13.7478 67.4596 13.7333C69.3068 13.7111 71.0524 14.1297 72.5405 15.0484C73.4185 15.7202 73.7838 16.006 73.9644 16.1492C74.0681 16.2291 74.1117 16.2646 74.1595 16.298C74.1968 16.325 74.2342 16.3506 74.3027 16.3964L74.3048 16.3973C74.3255 16.3973 74.3525 16.3973 74.3857 16.3975C74.9253 16.4 76.9511 16.4089 78.5596 15.9821C79.5269 15.7302 80.7348 15.2491 81.8577 14.801C82.5862 14.5106 83.2815 14.2341 83.8523 14.0427C85.2222 13.258 86.3326 13.3462 87.6298 13.4489C88.101 13.4865 88.597 13.5257 89.1388 13.5257C91.6813 13.5257 93.0346 14.7711 94.1845 17.0293C95.8304 20.2754 94.2882 23.9284 91.3015 26.2966C89.556 27.6831 87.2147 30.3045 86.4883 32.5627C86.1105 33.7375 86.6564 34.7794 87.0259 35.3087L87.3185 35.6678ZM33.0634 35.6678C32.1398 36.9225 31.3552 38.2741 30.7243 39.6985L32.0879 39.024C31.5379 39.9306 31.0937 40.8963 30.7595 41.9028C29.2631 46.662 30.5977 49.628 30.5977 49.628L31.2203 46.7097C31.1913 48.0958 31.4092 49.4758 31.8617 50.7861C31.8637 50.8191 31.8637 50.8521 31.8658 50.8851C31.2494 50.8457 30.5707 50.712 29.7425 50.3895C26.7267 49.2044 25.2178 42.1412 25.2178 42.1412L23.9725 43.7892C23.9725 43.7892 22.2228 40.8108 19.0285 39.773C14.6013 38.3201 11.2016 40.1881 11.2016 40.1881L12.3348 41.3214C12.3348 41.3214 11.1642 41.3214 9.65735 42.6601C8.89354 43.3424 8.35596 44.2405 8.11312 45.2359C8.11312 45.2359 4.80469 45.8704 3.73577 49.1913C3.31444 50.4978 3.32066 52.9273 3.32066 52.9273C3.32066 52.9273 0.495831 53.8951 0.0807197 56.4688C-0.157969 57.8974 0.13676 59.3644 0.910943 60.5888C0.910943 60.5888 -0.764043 64.8395 2.45722 67.6955C3.70048 68.7997 6.57515 70.373 6.57515 70.373L16.5 71.5L27 77.5C27 77.5 32.0629 76.1677 35.6412 76.5C41.58 77.0515 47.1793 81.0563 50.5 82.5C55.6931 84.7578 60.5002 87 60.5002 87L60.2574 67.148H60.1246C60.1474 67.1469 60.1681 67.1459 60.191 67.1449V14.0666C60.0996 14.0666 59.9938 14.0672 59.8817 14.0679C59.4355 14.0706 58.8647 14.0741 58.4828 14.0425C57.144 13.9408 54.2632 13.7478 52.9223 13.7333C51.1602 13.7121 49.4811 14.1 48.0489 14.9446C46.5483 15.8294 45.3092 17.2028 44.0742 18.5735C43.6986 18.5735 40.9837 18.5112 39.2776 18.0587C37.6961 17.647 36.6624 16.6839 35.6703 15.7588L35.6454 15.7362L35.6412 15.7316C34.4312 14.6042 33.273 13.5257 31.2432 13.5257C28.7006 13.5257 27.3473 14.7711 26.1975 17.0293C24.5515 20.2754 26.0937 23.9284 29.0804 26.2966C30.826 27.6831 33.1672 30.3045 33.8936 32.5627C34.2714 33.7375 33.7255 34.7794 33.3561 35.3087L33.0634 35.6678Z" fill="#2B2B2B"/>
<rect x="56" y="15" width="8" height="67" fill="#2B2B2B"/>
<path d="M68.1884 27.8341H70.5566C70.5566 27.8341 70.3988 26.7362 70.5566 26.0637C70.5836 25.9012 70.6396 25.7447 70.7206 25.6008C70.7206 25.6008 69.9215 26.1633 68.2901 26.5992C66.7459 27.0143 65.9219 26.8067 65.9219 26.8067L67.0551 28.5564L68.1884 27.8341Z" fill="white"/>
<path d="M66.9673 26.9921C66.8386 26.3385 67.343 25.6891 68.0943 25.5417C68.8457 25.3943 69.5597 25.8047 69.6884 26.4582C69.815 27.1116 69.3106 27.7611 68.5593 27.9084C67.8079 28.0558 67.0939 27.6455 66.9673 26.9921Z" fill="#2B2B2B"/>
<path d="M52.1914 27.8341H49.8232C49.8232 27.8341 49.9809 26.7362 49.8232 26.0637C49.7962 25.9012 49.7401 25.7447 49.6592 25.6008C49.6592 25.6008 50.4583 26.1633 52.0897 26.5992C53.6339 27.0143 54.4579 26.8067 54.4579 26.8067L53.3246 28.5564L52.1914 27.8341Z" fill="white"/>
<path d="M53.4153 26.9921C53.544 26.3385 53.0397 25.6891 52.2883 25.5417C51.537 25.3943 50.823 25.8047 50.6943 26.4582C50.5677 27.1116 51.072 27.7611 51.8234 27.9084C52.5747 28.0558 53.2887 27.6455 53.4153 26.9921Z" fill="#2B2B2B"/>
<path fill-rule="evenodd" clip-rule="evenodd" d="M60.1925 24.7396C60.1925 24.7396 61.5582 24.4893 62.7309 24.9293C63.0277 25.0401 63.2207 25.2116 63.4594 25.4227C63.7022 25.6385 63.9907 25.8957 64.4868 26.1726C64.9683 26.4812 65.4997 26.7045 66.058 26.8326C66.3755 27.2759 66.6599 27.7438 66.9048 28.2315C67.6396 27.9181 68.3971 27.6587 69.1713 27.4553C69.767 27.3428 70.371 27.2925 70.977 27.3058C70.977 27.2674 70.9895 27.1825 71.004 27.0709C71.0352 26.8556 71.0787 26.5412 71.0787 26.268C71.1638 27.4606 71.5478 28.0416 71.7035 28.2768C71.7346 28.3255 71.7575 28.3596 71.7658 28.381C71.7658 28.381 70.8318 27.5507 69.2751 28.0696C67.7184 28.5885 67.4714 30.0144 67.6147 30.8716C67.6707 31.2064 67.7101 31.4794 67.7475 31.7322C67.8388 32.3361 67.9115 32.8262 68.1335 33.7774C69.0157 37.5383 68.532 41.1456 67.4735 43.7754C67.4611 43.804 67.3863 43.7469 67.241 43.6363C66.855 43.3453 65.9812 42.6824 64.4868 42.2312C63.3162 41.8914 62.102 41.7181 60.8836 41.7164V39.0369C60.8836 39.0369 64.7213 38.5035 65.8255 36.6687C67.1933 34.4042 66.5478 30.0788 63.4573 29.975C62.3842 29.9312 61.2634 29.9206 60.1925 29.9908C59.1215 29.9206 58.0007 29.9312 56.9276 29.975C53.8371 30.0788 53.1916 34.4042 54.5594 36.6687C55.6636 38.5035 59.5013 39.0369 59.5013 39.0369V41.7164C58.283 41.7181 57.0688 41.8914 55.8981 42.2312C54.4037 42.6824 53.5299 43.3453 53.1439 43.6363C52.9986 43.7469 52.9239 43.804 52.9114 43.7754C51.8529 41.1456 51.3693 37.5383 52.2514 33.7774C52.4735 32.8262 52.5461 32.3361 52.6374 31.7322C52.6748 31.4794 52.7142 31.2064 52.7703 30.8716C52.9135 30.0144 52.6665 28.5885 51.1098 28.0696C49.5531 27.5507 48.6191 28.381 48.6191 28.381C48.6274 28.3596 48.6503 28.3255 48.6814 28.2768C48.8371 28.0416 49.2211 27.4606 49.3062 26.268C49.3062 26.5412 49.3497 26.8556 49.3809 27.0709C49.3954 27.1825 49.4079 27.2674 49.4079 27.3058C50.0139 27.2925 50.6179 27.3428 51.2136 27.4553C51.9878 27.6587 52.7454 27.9181 53.4801 28.2315C53.725 27.7438 54.0094 27.2759 54.3269 26.8326C54.8853 26.7045 55.4166 26.4812 55.8981 26.1726C56.3942 25.8957 56.6827 25.6385 56.9255 25.4227C57.1642 25.2116 57.3572 25.0401 57.6541 24.9293C58.8267 24.4893 60.1925 24.7396 60.1925 24.7396Z" fill="#585858"/>
<path d="M52.0917 26.0845C50.6118 25.9247 49.9725 25.3932 48.7272 25.1856C48.5653 25.1586 47.5857 24.9781 47.1705 25.7045C46.7554 26.431 47.1705 27.2612 47.1705 27.2612C47.1705 27.2612 46.029 26.3272 46.8592 24.7705C47.6251 23.3342 49.3104 23.4069 49.3104 23.4069C49.3104 23.4069 49.765 24.148 51.4732 24.9845C51.3196 24.8131 51.2033 24.6115 51.1328 24.393C51.0601 24.1742 51.0352 23.943 51.0581 23.7141C51.0581 23.7141 51.9858 25.1669 53.2208 25.2603C52.5981 24.5381 52.706 23.9216 52.706 23.9216C52.706 23.9216 53.2042 25.6713 55.4707 25.497C56.1473 25.4534 56.8136 25.3035 57.4446 25.0528C57.4446 25.0528 54.9746 26.3938 52.0917 26.0845Z" fill="#585858"/>
<path d="M36.5884 23.2881C33.8715 25.8286 34.544 28.1262 34.544 28.1262C34.544 28.1262 33.5768 26.5654 33.7844 25.2889C33.9919 24.0125 34.737 23.6098 34.737 23.6098C34.737 23.6098 34.6353 23.5434 33.6992 23.7302C33.1866 23.8711 32.7134 24.1322 32.3211 24.4919C32.4269 23.9732 32.6594 23.4886 32.9956 23.0805C33.6557 22.2731 34.9508 22.159 34.9508 22.159C34.9508 22.159 34.6187 21.7688 33.5913 21.7231C32.5183 21.6733 31.5469 22.3105 31.5469 22.3105C31.5469 22.3105 31.989 21.2727 32.9355 20.7891C33.5768 20.4946 34.2846 20.3757 34.9861 20.4446C34.9861 20.4446 34.5274 19.8219 33.2281 19.7098C32.5909 19.6785 31.9579 19.8221 31.3975 20.1249C32.072 19.5442 32.869 19.1243 33.7283 18.897C34.5897 18.6698 35.4904 18.6411 36.3622 18.8132C38.17 19.143 39.7827 20.1496 40.8724 21.6276C40.8724 21.6276 38.7242 21.2935 36.5884 23.2881Z" fill="#585858"/>
<path d="M56.2167 33.9862C55.7435 34.2125 55.4404 34.8372 55.4404 34.8372C55.5629 34.3839 55.8348 33.9848 56.2105 33.7039C56.7771 33.2888 58.3794 33.3843 57.9643 31.9314C57.9249 31.794 57.8584 31.666 57.7692 31.5547C57.68 31.4432 57.57 31.3511 57.4433 31.2834C57.3167 31.2156 57.1798 31.1738 57.0365 31.1604C56.8954 31.1469 56.7522 31.162 56.6152 31.205C56.3039 31.3158 56.0465 31.5375 55.8888 31.8276C55.9573 31.6018 56.0652 31.3905 56.2105 31.205C56.9265 30.4785 58.0785 30.6861 58.587 31.1012C58.9004 31.3337 59.1246 31.6676 59.218 32.046C59.3134 32.4246 59.274 32.8241 59.1059 33.1768C58.6908 34.1045 57.1424 33.5483 56.2167 33.9862Z" fill="#585858"/>
<path d="M46.2217 22.7981C45.2005 23.2642 44.3662 24.0623 43.8535 25.0625C44.0652 24.2337 44.4533 23.461 44.993 22.7981C45.46 22.2864 46.0163 21.8643 46.6348 21.5527L45.296 21.862C45.296 21.862 45.7568 21.1168 47.5605 20.4091C48.6252 19.994 49.9743 20.2015 49.9743 20.2015L49.4554 19.5789C50.2836 19.628 51.0951 19.8395 51.8423 20.2015C52.5792 20.5672 53.2184 21.1004 53.7103 21.7582C53.316 21.5122 52.8988 21.3039 52.465 21.1355C52.0623 21.0052 51.6431 20.9352 51.2197 20.928L51.7386 22.1733C51.1263 21.8427 50.4579 21.6314 49.7668 21.5506C49.0009 21.444 48.2184 21.5149 47.4837 21.7582L48.2101 22.2771C47.5231 22.3373 46.8506 22.5135 46.2217 22.7981Z" fill="white"/>
<path d="M45.8481 28.5479C45.0324 28.1764 44.3641 27.5402 43.9531 26.7422C44.1233 27.3997 44.4347 28.0126 44.8643 28.5376C45.2379 28.9464 45.6841 29.2833 46.1781 29.5317L45.1071 29.2847C45.1071 29.2847 45.4766 29.8784 46.9191 30.4388C47.7722 30.7708 48.8514 30.6048 48.8514 30.6048L48.4363 31.1009C49.0984 31.0616 49.7481 30.8931 50.3458 30.6048C50.9353 30.3126 51.448 29.886 51.8402 29.3595C51.5248 29.5554 51.1906 29.7214 50.844 29.8555C50.5223 29.9583 50.186 30.0137 49.8477 30.0195L50.2628 29.0274C49.773 29.291 49.2375 29.4593 48.6854 29.5234C48.071 29.6094 47.4463 29.5531 46.8568 29.3595L47.44 28.9444C46.8921 28.9022 46.3525 28.7681 45.8481 28.5479Z" fill="#585858"/>
<path d="M43.5397 16.5721C44.4052 16.618 45.2748 16.5834 46.1341 16.4684C46.1341 16.4684 47.2819 15.3559 48.1951 14.8474C50.0299 13.8262 52.2944 13.7245 52.2944 13.7245C52.2944 13.7245 51.8647 13.6705 50.3392 13.8283C49.2392 13.9403 47.9897 14.3305 46.3417 14.1853C45.7398 14.1168 45.1482 13.9775 44.5775 13.7701C44.5775 13.7701 44.785 14.0815 45.4969 14.4447C46.022 14.6788 46.5845 14.8154 47.1574 14.8474C47.1574 14.8474 45.3869 16.0533 43.5334 16.0533C42.5849 16.0369 41.6447 15.8972 40.7314 15.6381C40.7314 15.6381 42.2943 16.4829 43.5397 16.5721Z" fill="white"/>
<path fill-rule="evenodd" clip-rule="evenodd" d="M29.4256 27.9376C29.0852 27.8668 28.7365 27.8319 28.3878 27.8338C27.815 27.8427 27.2504 27.9849 26.7398 28.2489C27.3998 28.2203 28.0578 28.3284 28.6742 28.5665C29.8179 29.0459 31.1919 30.2145 31.1919 30.2145C30.7104 30.1875 30.2247 30.2224 29.7514 30.3182C29.3571 30.4158 28.9877 30.6009 28.6742 30.86C29.573 30.6651 30.507 30.7232 31.3725 31.0281C31.8457 31.2275 32.2421 31.571 32.5057 32.0098C33.172 33.4316 33.1429 34.3199 33.1429 34.3199C33.1824 34.2525 33.2156 34.1833 33.2467 34.1124C33.5497 33.4046 34.243 31.0177 31.5863 28.1534C27.4767 23.7138 26.3123 22.2796 26.3123 19.0625C26.3123 17.6096 27.3957 15.4303 29.0105 14.6C33.3692 12.3584 36.1712 15.4303 36.1712 15.4303C36.1712 15.4303 33.3691 11.5905 28.6099 13.3132C26.5219 14.0687 24.8573 15.7623 24.548 18.5436C24.0956 22.6179 26.5592 25.0754 29.4256 27.9293V27.9376Z" fill="white"/>
<path d="M49.0407 56.1109C51.056 57.6609 53.5592 58.4345 56.0976 58.2902C56.0976 58.2902 54.022 59.0312 50.9087 58.1865C47.9614 57.3874 46.8613 56.2147 46.8613 56.2147L48.0029 57.9789C48.0029 57.9789 44.4744 57.5804 41.88 52.9976C41.3819 52.0847 41.0124 51.1065 40.7841 50.0918L40.1158 51.5447C39.2129 49.8195 38.7833 47.8859 38.8704 45.9407C38.9659 43.9517 39.574 42.0212 40.6347 40.3367C40.6347 40.3367 40.1054 41.5322 40.4271 44.2802C40.6471 46.1482 41.1369 46.9639 41.1369 46.9639L42.3989 44.5978C42.2183 46.3382 42.3594 48.0972 42.814 49.7867C43.3017 51.4444 44.2357 52.937 45.5122 54.1018L45.8235 51.7522C46.4711 53.4758 47.5836 54.9851 49.0407 56.1109Z" fill="#585858"/>
<path d="M37.8658 31.0305C37.4507 32.9877 35.7031 34.6357 35.7031 34.6357C35.7031 34.6357 38.3806 33.0002 38.8559 30.6921C39.3831 28.1413 40.4997 27.9399 40.4997 27.9399C40.4997 27.9399 38.4781 28.1247 37.8658 31.0305Z" fill="#585858"/>
<path d="M8.52638 49.7807C8.34788 48.8178 8.42052 47.8253 8.73393 46.8977C8.73393 46.8977 6.22666 47.0015 5.44002 49.3697C5.13077 50.2983 5.0602 51.2894 5.23247 52.2526C5.60814 51.9201 6.05024 51.6734 6.53177 51.5299C7.01122 51.3865 7.51766 51.3498 8.01372 51.4224C8.95395 51.5802 10.0748 52.4602 10.0748 52.4602C10.0748 52.4602 8.83564 51.3166 8.52638 49.7807Z" fill="#585858"/>
<path d="M4.20721 57.3569C3.83153 56.458 3.68832 55.4784 3.79209 54.5093C3.79209 54.5093 2.17937 55.3395 1.93653 57.083C1.69369 58.8264 2.5592 59.7604 2.5592 59.7604C2.91827 59.4555 3.34584 59.2418 3.80453 59.1378C4.60777 58.9757 5.44009 59.079 6.17899 59.4325C6.17899 59.4325 4.70119 58.4258 4.20721 57.3569Z" fill="#585858"/>
<path d="M13.9844 46.3726C11.9254 46.3726 11.5124 47.5307 11.5124 47.5307C11.5124 47.5307 11.2031 49.1538 12.7577 51.2916C14.3123 53.4295 18.3181 53.7823 18.3181 53.7823C17.4941 53.0718 16.8839 52.1463 16.556 51.109C16.0392 49.5648 16.556 47.5307 16.556 47.5307C16.556 47.5307 16.0433 46.3726 13.9844 46.3726Z" fill="white"/>
<path d="M7.37114 52.8608C5.69201 52.8608 5.35578 53.7928 5.35578 53.7928C5.35578 53.7928 5.10256 55.1004 6.36242 56.8231C7.62228 58.5458 10.8954 58.8343 10.8954 58.8343C10.2292 58.261 9.7352 57.5136 9.46952 56.6757C9.05441 55.4304 9.46952 53.7928 9.46952 53.7928C9.46952 53.7928 9.05026 52.8608 7.37114 52.8608Z" fill="white"/>
<path d="M4.54318 60.8931C2.98859 60.8931 2.67518 61.7627 2.67518 61.7627C2.67518 61.7627 2.44271 62.979 3.6071 64.5834C4.77149 66.1878 7.80595 66.4514 7.80595 66.4514C7.18744 65.9176 6.72874 65.2218 6.48382 64.4423C6.09569 63.2841 6.48382 61.7586 6.48382 61.7586C6.48382 61.7586 6.09777 60.8931 4.54318 60.8931Z" fill="white"/>
<path d="M14.0656 44.7992C11.3674 44.7992 10.2777 46.4762 10.2777 46.4762C10.2777 46.4762 10.1324 44.6871 11.3674 43.6576C12.6024 42.6281 14.8087 42.6655 14.8087 42.6655L13.8809 41.4534C13.8809 41.4534 16.4525 40.5443 18.8249 41.7626C24.5928 44.7245 25.0038 54.3281 25.0038 54.3281C25.0038 54.3281 23.1088 50.7996 20.8859 48.639C18.663 46.4783 16.5376 44.7992 14.0656 44.7992Z" fill="#585858"/>
<path d="M28.3871 55.6968C25.17 54.4722 25.8279 48.6399 25.8279 48.6399C25.8279 48.6399 25.6992 52.9612 29.0098 53.9346C32.0193 54.8188 34.0949 52.8387 36.3344 53.6877C37.7105 54.2086 37.9824 54.8188 37.9824 54.8188C37.9824 54.8188 35.8944 55.5619 35.1326 57.4631C34.6449 58.758 34.5598 60.1709 34.8919 61.5146C34.8919 61.5146 33.2605 59.7919 33.3477 58.0131C33.4494 55.8753 34.6138 55.18 34.6138 55.18C34.6138 55.18 31.6561 56.7802 28.3871 55.6968Z" fill="#585858"/>
<path d="M41.6917 59.3493C41.5402 58.6629 41.2143 58.0274 40.7452 57.5041C40.2762 56.9809 39.6805 56.5875 39.0142 56.3625C39.0142 56.3625 38.0844 56.6718 37.1608 58.216C36.6668 59.0462 36.5381 60.3788 36.5381 60.3788C36.5381 60.3788 38.1695 61.0824 39.0101 61.8317C39.8507 62.5809 40.7598 64.0961 40.7598 64.0961C40.7598 64.0961 42.0881 61.1965 41.6917 59.3493Z" fill="white"/>
<path fill-rule="evenodd" clip-rule="evenodd" d="M66.3354 32.63C66.3831 32.8134 66.4184 33 66.4433 33.1883C66.4184 33.0061 66.3748 32.8267 66.3147 32.6528C66.022 31.7603 65.1876 30.0999 62.9938 30.0999H60.1938H57.3939C55.2 30.0999 54.3657 31.7603 54.073 32.6528C54.0128 32.8267 53.9692 33.0061 53.9443 33.1883C53.9692 33 54.0045 32.8134 54.0523 32.63C54.3906 31.2829 55.611 27.9371 57.7592 27.9351H60.1938H62.6285C64.7767 27.9371 65.9971 31.2829 66.3354 32.63Z" fill="white"/>
<path d="M68.2904 26.0845C69.7702 25.9247 70.4095 25.3932 71.6548 25.1856C71.8167 25.1586 72.7964 24.9781 73.2115 25.7045C73.6266 26.431 73.2115 27.2612 73.2115 27.2612C73.2115 27.2612 74.3531 26.3272 73.5228 24.7705C72.757 23.3342 71.0716 23.4069 71.0716 23.4069C71.0716 23.4069 70.6171 24.148 68.9089 24.9845C69.0625 24.8131 69.1787 24.6115 69.2493 24.393C69.3219 24.1742 69.3468 23.943 69.324 23.7141C69.324 23.7141 68.3962 25.1669 67.1613 25.2603C67.7839 24.5381 67.676 23.9216 67.676 23.9216C67.676 23.9216 67.1779 25.6713 64.9114 25.497C64.2347 25.4534 63.5685 25.3035 62.9375 25.0528C62.9375 25.0528 65.4074 26.3938 68.2904 26.0845Z" fill="#585858"/>
<path d="M83.7937 23.2881C86.5106 25.8286 85.8381 28.1262 85.8381 28.1262C85.8381 28.1262 86.8054 26.5654 86.5978 25.2889C86.3902 24.0125 85.6451 23.6098 85.6451 23.6098C85.6451 23.6098 85.7468 23.5434 86.6829 23.7302C87.1956 23.8711 87.6688 24.1322 88.0611 24.4919C87.9552 23.9732 87.7228 23.4886 87.3865 23.0805C86.7265 22.2731 85.4313 22.159 85.4313 22.159C85.4313 22.159 85.7634 21.7688 86.7908 21.7231C87.8639 21.6733 88.8353 22.3105 88.8353 22.3105C88.8353 22.3105 88.3932 21.2727 87.4467 20.7891C86.8054 20.4946 86.0976 20.3757 85.396 20.4446C85.396 20.4446 85.8548 19.8219 87.1541 19.7098C87.7913 19.6785 88.4243 19.8221 88.9847 20.1249C88.3101 19.5442 87.5131 19.1243 86.6538 18.897C85.7925 18.6698 84.8917 18.6411 84.02 18.8132C82.2122 19.143 80.5994 20.1496 79.5098 21.6276C79.5098 21.6276 81.658 21.2935 83.7937 23.2881Z" fill="#585858"/>
<path d="M64.1645 33.9855C64.6378 34.2117 64.9408 34.8365 64.9408 34.8365C64.8183 34.3832 64.5464 33.984 64.1708 33.7032C63.6041 33.2881 62.0018 33.3836 62.4169 31.9307C62.4563 31.7933 62.5228 31.6652 62.612 31.554C62.7013 31.4425 62.8113 31.3504 62.9379 31.2827C63.0645 31.215 63.2015 31.1731 63.3447 31.1596C63.4858 31.1461 63.629 31.1613 63.766 31.2042C64.0773 31.3151 64.3347 31.5369 64.4925 31.8269C64.424 31.6011 64.3161 31.3898 64.1708 31.2042C63.4547 30.4778 62.3027 30.6853 61.7942 31.1005C61.4808 31.3329 61.2567 31.6669 61.1633 32.0455C61.0678 32.4238 61.1072 32.8236 61.2753 33.176C61.6905 34.1038 63.2388 33.5475 64.1645 33.9855Z" fill="#585858"/>
<path d="M74.1634 22.7973C75.1846 23.2635 76.019 24.0615 76.5316 25.0617C76.3199 24.233 75.9318 23.4603 75.3921 22.7973C74.9251 22.2857 74.3689 21.8635 73.7504 21.552L75.0891 21.8612C75.0891 21.8612 74.6283 21.1161 72.8247 20.4083C71.7599 19.9932 70.4108 20.2008 70.4108 20.2008L70.9297 19.5781C70.1016 19.6273 69.29 19.8388 68.5428 20.2008C67.806 20.5665 67.1667 21.0997 66.6748 21.7575C67.0692 21.5117 67.4863 21.3031 67.9201 21.1348C68.3228 21.0044 68.7421 20.9345 69.1655 20.9272L68.6466 22.1726C69.2589 21.8419 69.9272 21.6306 70.6184 21.5499C71.3842 21.4432 72.1667 21.5142 72.9015 21.7575L72.175 22.2764C72.862 22.3365 73.5345 22.5128 74.1634 22.7973Z" fill="white"/>
<path d="M74.5332 28.5479C75.3488 28.1764 76.0172 27.5402 76.4281 26.7422C76.2579 27.3997 75.9466 28.0126 75.517 28.5376C75.1434 28.9464 74.6971 29.2833 74.2031 29.5317L75.2741 29.2847C75.2741 29.2847 74.9047 29.8784 73.4622 30.4388C72.6091 30.7708 71.5298 30.6048 71.5298 30.6048L71.9449 31.1009C71.2828 31.0616 70.6332 30.8931 70.0354 30.6048C69.446 30.3126 68.9333 29.886 68.541 29.3595C68.8565 29.5554 69.1907 29.7214 69.5373 29.8555C69.859 29.9583 70.1952 30.0137 70.5335 30.0195L70.1184 29.0274C70.6083 29.291 71.1438 29.4593 71.6959 29.5234C72.3102 29.6094 72.935 29.5531 73.5244 29.3595L72.9412 28.9444C73.4892 28.9022 74.0288 28.7681 74.5332 28.5479Z" fill="#585858"/>
<path d="M76.8426 16.5721C75.9771 16.618 75.1074 16.5834 74.2481 16.4684C74.2481 16.4684 73.1004 15.3559 72.1871 14.8474C70.3523 13.8262 68.0879 13.7245 68.0879 13.7245C68.0879 13.7245 68.5175 13.6705 70.0431 13.8283C71.1431 13.9403 72.3926 14.3305 74.0406 14.1853C74.6425 14.1168 75.234 13.9775 75.8048 13.7701C75.8048 13.7701 75.5973 14.0815 74.8853 14.4447C74.3602 14.6788 73.7978 14.8154 73.2249 14.8474C73.2249 14.8474 74.9953 16.0533 76.8488 16.0533C77.7973 16.0369 78.7376 15.8972 79.6508 15.6381C79.6508 15.6381 78.0879 16.4829 76.8426 16.5721Z" fill="white"/>
<path fill-rule="evenodd" clip-rule="evenodd" d="M90.9585 27.9376C91.2988 27.8668 91.6475 27.8319 91.9962 27.8338C92.5691 27.8427 93.1337 27.9849 93.6442 28.2489C92.9842 28.2203 92.3262 28.3284 91.7098 28.5665C90.5662 29.0459 89.1922 30.2145 89.1922 30.2145C89.6737 30.1875 90.1594 30.2224 90.6326 30.3182C91.027 30.4158 91.3964 30.6009 91.7098 30.86C90.8111 30.6651 89.8771 30.7232 89.0116 31.0281C88.5384 31.2275 88.1419 31.571 87.8783 32.0098C87.2121 33.4316 87.2411 34.3199 87.2411 34.3199C87.2017 34.2525 87.1685 34.1833 87.1373 34.1124C86.8343 33.4046 86.1411 31.0177 88.7978 28.1534C92.9074 23.7138 94.0718 22.2796 94.0718 19.0625C94.0718 17.6096 92.9884 15.4303 91.3736 14.6C87.0149 12.3584 84.2129 15.4303 84.2129 15.4303C84.2129 15.4303 87.0149 11.5905 91.7742 13.3132C93.8622 14.0687 95.5268 15.7623 95.836 18.5436C96.2885 22.6179 93.8248 25.0754 90.9585 27.9293V27.9376Z" fill="white"/>
<path fill-rule="evenodd" clip-rule="evenodd" d="M63.4565 51.4189C62.425 51.7904 61.2502 51.8786 60.1917 51.889C59.1331 51.8786 57.9584 51.7904 56.9268 51.4189C56.1983 51.1603 55.503 50.8197 54.8513 50.4039L55.2664 51.4189C53.4855 50.5224 52.0057 49.1231 51.0115 47.3944C49.1435 44.0735 50.3099 41.2922 50.3099 41.2922C50.3099 41.2922 49.7661 42.8281 51.7379 46.3566C52.4457 47.6248 53.8135 48.5359 53.8135 48.5359L53.5021 47.083C54.3324 48.1185 55.4013 48.9375 56.6155 49.4699C58.691 50.4039 60.1917 50.295 60.1917 50.295C60.1917 50.295 61.6923 50.4039 63.7678 49.4699C64.982 48.9375 66.051 48.1185 66.8812 47.083L66.5698 48.5359C66.5698 48.5359 67.9376 47.6248 68.6454 46.3566C70.6172 42.8281 70.0734 41.2922 70.0734 41.2922C70.0734 41.2922 71.2399 44.0735 69.3718 47.3944C68.3777 49.1231 66.8978 50.5224 65.117 51.4189L65.5321 50.4039C64.8803 50.8197 64.185 51.1603 63.4565 51.4189Z" fill="white"/>
<path d="M71.345 56.1109C69.3296 57.6609 66.8265 58.4345 64.2881 58.2902C64.2881 58.2902 66.3636 59.0312 69.477 58.1865C72.4243 57.3874 73.5243 56.2147 73.5243 56.2147L72.3828 57.9789C72.3828 57.9789 75.9112 57.5804 78.5057 52.9976C79.0038 52.0847 79.3732 51.1065 79.6016 50.0918L80.2699 51.5447C81.1728 49.8195 81.6024 47.8859 81.5152 45.9407C81.4197 43.9517 80.8116 42.0212 79.751 40.3367C79.751 40.3367 80.2803 41.5322 79.9585 44.2802C79.7385 46.1482 79.2487 46.9639 79.2487 46.9639L77.9868 44.5978C78.1673 46.3382 78.0262 48.0972 77.5717 49.7867C77.0839 51.4444 76.1499 52.937 74.8734 54.1018L74.5621 51.7522C73.9145 53.4758 72.802 54.9851 71.345 56.1109Z" fill="#585858"/>
<path d="M82.5157 31.0312C82.9308 32.9884 84.6784 34.6364 84.6784 34.6364C84.6784 34.6364 82.001 33.0009 81.5257 30.6929C80.9985 28.142 79.8818 27.9407 79.8818 27.9407C79.8818 27.9407 81.9034 28.1254 82.5157 31.0312Z" fill="#585858"/>
<path fill-rule="evenodd" clip-rule="evenodd" d="M60.1922 17.3827V19.9253C60.1922 19.9253 59.7231 19.0623 58.0627 18.0245C56.4023 16.9867 54.1191 17.0905 54.1191 17.0905C55.5098 16.4093 57.11 16.2976 58.5816 16.7791C59.2458 17.0116 60.1922 17.3827 60.1922 17.3827ZM60.1922 17.3836V19.9261C60.1922 19.9261 60.6613 19.0631 62.3218 18.0253C63.9822 16.9875 66.2653 17.0913 66.2653 17.0913C64.8747 16.4101 63.2744 16.2984 61.8029 16.78C61.1387 17.0124 60.1922 17.3836 60.1922 17.3836Z" fill="#585858"/>
<path fill-rule="evenodd" clip-rule="evenodd" d="M66.3408 45.9603C66.3408 45.9603 64.1033 43.0078 60.1909 43.1095C56.2785 43.0078 54.041 45.9603 54.041 45.9603C54.041 45.9603 54.6637 47.106 56.513 47.9175C58.0676 48.5921 60.1909 48.4644 60.1909 48.4644C60.1909 48.4644 62.3142 48.5921 63.8688 47.9175C65.7181 47.106 66.3408 45.9603 66.3408 45.9603Z" fill="#585858"/>
<path d="M111.855 49.7807C112.034 48.8178 111.961 47.8253 111.647 46.8977C111.647 46.8977 114.155 47.0015 114.941 49.3697C115.251 50.2983 115.321 51.2894 115.149 52.2526C114.773 51.9201 114.331 51.6734 113.85 51.5299C113.37 51.3865 112.864 51.3498 112.368 51.4224C111.427 51.5802 110.307 52.4602 110.307 52.4602C110.307 52.4602 111.546 51.3166 111.855 49.7807Z" fill="#585858"/>
<path d="M116.175 57.3569C116.551 56.458 116.694 55.4784 116.59 54.5093C116.59 54.5093 118.203 55.3395 118.446 57.083C118.688 58.8264 117.823 59.7604 117.823 59.7604C117.464 59.4555 117.036 59.2418 116.578 59.1378C115.774 58.9757 114.942 59.079 114.203 59.4325C114.203 59.4325 115.681 58.4258 116.175 57.3569Z" fill="#585858"/>
<path d="M106.399 46.3726C108.458 46.3726 108.871 47.5307 108.871 47.5307C108.871 47.5307 109.18 49.1538 107.626 51.2916C106.071 53.4295 102.065 53.7823 102.065 53.7823C102.889 53.0718 103.5 52.1463 103.828 51.109C104.344 49.5648 103.828 47.5307 103.828 47.5307C103.828 47.5307 104.34 46.3726 106.399 46.3726Z" fill="white"/>
<path d="M113.012 52.8608C114.691 52.8608 115.027 53.7928 115.027 53.7928C115.027 53.7928 115.28 55.1004 114.02 56.8231C112.76 58.5458 109.487 58.8343 109.487 58.8343C110.154 58.261 110.648 57.5136 110.913 56.6757C111.328 55.4304 110.913 53.7928 110.913 53.7928C110.913 53.7928 111.332 52.8608 113.012 52.8608Z" fill="white"/>
<path d="M115.841 60.8931C117.395 60.8931 117.709 61.7627 117.709 61.7627C117.709 61.7627 117.941 62.979 116.777 64.5834C115.613 66.1878 112.578 66.4514 112.578 66.4514C113.197 65.9176 113.655 65.2218 113.9 64.4423C114.288 63.2841 113.9 61.7586 113.9 61.7586C113.9 61.7586 114.286 60.8931 115.841 60.8931Z" fill="white"/>
<path d="M106.316 44.7992C109.014 44.7992 110.104 46.4762 110.104 46.4762C110.104 46.4762 110.249 44.6871 109.014 43.6576C107.779 42.6281 105.573 42.6655 105.573 42.6655L106.501 41.4534C106.501 41.4534 103.929 40.5443 101.557 41.7626C95.7889 44.7245 95.3779 54.3281 95.3779 54.3281C95.3779 54.3281 97.2729 50.7996 99.4958 48.639C101.719 46.4783 103.844 44.7992 106.316 44.7992Z" fill="#585858"/>
<path d="M91.9957 55.6968C95.2128 54.4722 94.5549 48.6399 94.5549 48.6399C94.5549 48.6399 94.6835 52.9612 91.373 53.9346C88.3635 54.8188 86.2879 52.8387 84.0484 53.6877C82.6723 54.2086 82.4004 54.8188 82.4004 54.8188C82.4004 54.8188 84.4884 55.5619 85.2501 57.4631C85.7379 58.758 85.823 60.1709 85.4909 61.5146C85.4909 61.5146 87.1223 59.7919 87.0351 58.0131C86.9334 55.8753 85.769 55.18 85.769 55.18C85.769 55.18 88.7267 56.7802 91.9957 55.6968Z" fill="#585858"/>
<path d="M78.693 59.3493C78.8445 58.6629 79.1704 58.0274 79.6395 57.5041C80.1085 56.9809 80.7042 56.5875 81.3705 56.3625C81.3705 56.3625 82.3003 56.6718 83.2239 58.216C83.7179 59.0462 83.8466 60.3788 83.8466 60.3788C83.8466 60.3788 82.2152 61.0824 81.3746 61.8317C80.534 62.5809 79.6249 64.0961 79.6249 64.0961C79.6249 64.0961 78.2966 61.1965 78.693 59.3493Z" fill="white"/>
<path d="M54.7931 70.644C48.498 68.9213 45.4531 65.8328 45.4531 65.8328C47.4249 66.9306 49.5524 67.7268 51.7607 68.1948C53.9027 68.634 56.0883 68.8227 58.2739 68.7573L54.378 65.3804C54.378 65.3804 57.2963 66.9308 64.9634 66.9308C71.0116 66.9308 74.7185 65.3804 74.7185 65.3804C74.7185 65.3804 72.4624 66.9308 67.5703 68.1948C63.1971 69.3239 61.0613 68.7573 61.0613 68.7573L65.2373 71.7689C61.7193 71.9414 58.195 71.562 54.7931 70.644Z" fill="white"/>
<path d="M42.0297 79.5516C36.9437 75.4614 35.383 71.4149 35.383 71.4149C36.7535 73.2079 38.3869 74.7865 40.2255 76.0964C42.0146 77.3533 43.9437 78.3979 45.974 79.2095L43.748 74.5591C43.748 74.5591 45.8059 77.1447 52.837 80.2022C58.3834 82.6141 62.4011 82.6705 62.4011 82.6705C62.4011 82.6705 59.7139 83.1927 54.7236 82.4009C50.2629 81.6924 48.5302 80.3211 48.5302 80.3211L51.1588 84.7482C47.8638 83.5034 44.7832 81.7501 42.0297 79.5516Z" fill="#2B2B2B"/>
<path d="M42.0297 79.5516C36.9437 75.4614 35.383 71.4149 35.383 71.4149C36.7535 73.2079 38.3869 74.7865 40.2255 76.0964C42.0146 77.3533 43.9437 78.3979 45.974 79.2095L43.748 74.5591C43.748 74.5591 45.8059 77.1447 52.837 80.2022C58.3834 82.6141 62.4011 82.6705 62.4011 82.6705C62.4011 82.6705 59.7139 83.1927 54.7236 82.4009C50.2629 81.6924 48.5302 80.3211 48.5302 80.3211L51.1588 84.7482C47.8638 83.5034 44.7832 81.7501 42.0297 79.5516Z" fill="#2B2B2B"/>
<path d="M9.50024 73.2022C4.41428 69.112 3.00013 68 3.00013 68C4.37057 69.793 5.38745 67.7865 7.226 69.0964C9.01515 70.3533 10.9442 71.3979 12.9745 72.2095L10.7485 67.5591C10.7485 67.5591 12.8064 70.1447 19.8375 73.2022C25.3839 75.6141 29.4017 75.6706 29.4017 75.6706C29.4017 75.6706 26.7144 76.1927 21.7241 75.401C17.2634 74.6925 15.5307 73.3211 15.5307 73.3211L18.1593 77.7483C14.8643 76.5035 12.2538 75.4007 9.50024 73.2022Z" fill="#2B2B2B"/>
<path d="M9.50024 73.2022C4.41428 69.112 3.00013 68 3.00013 68C4.37057 69.793 5.38745 67.7865 7.226 69.0964C9.01515 70.3533 10.9442 71.3979 12.9745 72.2095L10.7485 67.5591C10.7485 67.5591 12.8064 70.1447 19.8375 73.2022C25.3839 75.6141 29.4017 75.6706 29.4017 75.6706C29.4017 75.6706 26.7144 76.1927 21.7241 75.401C17.2634 74.6925 15.5307 73.3211 15.5307 73.3211L18.1593 77.7483C14.8643 76.5035 12.2538 75.4007 9.50024 73.2022Z" fill="#2B2B2B"/>
<path d="M78.24 80.3887C82.4794 76.8158 83.7258 73.3489 83.7258 73.3489C82.597 74.8983 81.2406 76.2708 79.7047 77.4191C78.2099 78.5215 76.7089 78.2711 75.0005 79L76.6832 76.1824C76.6832 76.1824 74.9861 78.4184 69.0746 81.1522C64.4114 83.3089 60.0005 85.5 60.0005 85.5C60.0005 85.5 62.2779 84.7698 66.5005 84C70.0005 82 72.7344 81.1691 72.7344 81.1691L70.5885 84.9802C73.3625 83.8587 75.9445 82.3095 78.24 80.3887Z" fill="#2B2B2B"/>
<path d="M78.24 80.3887C82.4794 76.8158 83.7258 73.3489 83.7258 73.3489C82.597 74.8983 81.2406 76.2708 79.7047 77.4191C78.2099 78.5215 76.7089 78.2711 75.0005 79L76.6832 76.1824C76.6832 76.1824 74.9861 78.4184 69.0746 81.1522C64.4114 83.3089 60.0005 85.5 60.0005 85.5C60.0005 85.5 62.2779 84.7698 66.5005 84C70.0005 82 72.7344 81.1691 72.7344 81.1691L70.5885 84.9802C73.3625 83.8587 75.9445 82.3095 78.24 80.3887Z" fill="#2B2B2B"/>
<path d="M111.239 73.3888C115.478 69.8159 118.5 67 118.5 67C117.371 68.5495 114.24 69.2709 112.704 70.4192C111.209 71.5216 109.591 72.4464 107.883 73.1753L109.682 69.1825C109.682 69.1825 107.985 71.4185 102.074 74.1524C97.4104 76.309 93.9995 76.4354 93.9995 76.4354C93.9995 76.4354 96.2918 76.8263 100.514 76.0565C104.289 75.3677 105.733 74.1692 105.733 74.1692L103.588 77.9803C106.362 76.8588 108.944 75.3096 111.239 73.3888Z" fill="#2B2B2B"/>
<path d="M111.239 73.3888C115.478 69.8159 118.5 67 118.5 67C117.371 68.5495 114.24 69.2709 112.704 70.4192C111.209 71.5216 109.591 72.4464 107.883 73.1753L109.682 69.1825C109.682 69.1825 107.985 71.4185 102.074 74.1524C97.4104 76.309 93.9995 76.4354 93.9995 76.4354C93.9995 76.4354 96.2918 76.8263 100.514 76.0565C104.289 75.3677 105.733 74.1692 105.733 74.1692L103.588 77.9803C106.362 76.8588 108.944 75.3096 111.239 73.3888Z" fill="#2B2B2B"/>
<path d="M22 76.5C15 73.5 7 70.5 7 70.5L14.5 62.5L48.5 68L43.5 70.5C39.2042 72.6479 37 73.5 32.5 76C29.0862 77.8966 25.5895 78.0384 22 76.5Z" fill="#2B2B2B"/>
<path d="M100.5 77.2365C107.5 74.4001 114.5 70 114.5 70L108 64L69.5 67.5C69.5 67.5 76 70.1455 79 71.5637C83.2958 73.5944 85.5 74.4001 90 76.7637C93.4138 78.5568 96.9105 78.6909 100.5 77.2365Z" fill="#2B2B2B"/>
</svg>
