<svg width="200" height="82" viewBox="0 0 200 82" fill="none" xmlns="http://www.w3.org/2000/svg">
<path d="M4.31381 13.2556H5.28705L10.7319 5.85858H15.5981L8.89066 14.8557L16.2031 24.4823H11.3895L5.68161 17.164H4.31381V24.4823H0V5.85858H4.31381V13.2556Z" fill="white"/>
<path d="M17.6214 24.4823V5.85858H25.5915C26.4858 5.85858 27.3012 6.04219 28.0377 6.40942C28.7918 6.77665 29.4318 7.25754 29.9579 7.8521C30.5015 8.44666 30.9224 9.11991 31.2205 9.87185C31.5361 10.6238 31.6939 11.3845 31.6939 12.1539C31.6939 12.9758 31.5449 13.7627 31.2468 14.5147C30.9662 15.2666 30.5629 15.9399 30.0368 16.5344C29.5283 17.129 28.9057 17.6011 28.1692 17.9509C27.4327 18.3006 26.6173 18.4755 25.723 18.4755H21.9353V24.4823H17.6214ZM21.9353 14.7245H25.46C25.9685 14.7245 26.4069 14.5059 26.7751 14.0687C27.1434 13.6316 27.3275 12.9933 27.3275 12.1539C27.3275 11.7167 27.2661 11.3408 27.1434 11.026C27.0382 10.7112 26.8891 10.4489 26.6962 10.2391C26.5033 10.0292 26.2841 9.8806 26.0386 9.79316C25.7931 9.68824 25.5476 9.63578 25.3021 9.63578H21.9353V14.7245Z" fill="white"/>
<path d="M37.9031 5.85858H41.796L48.6087 24.4823H44.1897L42.7429 20.3116H36.9298L35.5094 24.4823H31.0904L37.9031 5.85858ZM42.0327 17.3476L39.8495 10.7637L37.6137 17.3476H42.0327Z" fill="white"/>
<path d="M63.6524 20.7051V24.4823H50.5268V5.85858H63.4156V9.63578H54.8406V13.2556H62.2057V16.7443H54.8406V20.7051H63.6524Z" fill="white"/>
<path d="M81.6589 19.7083C81.6589 20.5127 81.4923 21.2122 81.1591 21.8068C80.826 22.4013 80.37 22.8997 79.7913 23.3019C79.2127 23.6866 78.5375 23.9839 77.766 24.1937C76.9944 24.3861 76.179 24.4823 75.3197 24.4823H66.2186V5.85858H76.6086C77.2574 5.85858 77.8449 5.99847 78.3709 6.27827C78.897 6.55806 79.3442 6.92529 79.7124 7.37995C80.0807 7.81713 80.3613 8.32425 80.5541 8.90132C80.7646 9.46091 80.8698 10.038 80.8698 10.6325C80.8698 11.5244 80.6418 12.3638 80.1859 13.1507C79.7475 13.9376 79.0811 14.5322 78.1868 14.9344C79.2565 15.2491 80.0982 15.8087 80.712 16.6131C81.3433 17.4175 81.6589 18.4493 81.6589 19.7083ZM77.2662 18.8427C77.2662 18.2656 77.0996 17.776 76.7664 17.3738C76.4332 16.9716 76.0124 16.7705 75.5038 16.7705H70.5324V20.8362H75.3197C75.8808 20.8362 76.3456 20.6526 76.7138 20.2854C77.0821 19.9182 77.2662 19.4373 77.2662 18.8427ZM70.5324 9.53086V13.3868H74.7673C75.2408 13.3868 75.6617 13.2294 76.0299 12.9146C76.3982 12.5998 76.5823 12.1102 76.5823 11.4457C76.5823 10.8336 76.4157 10.3615 76.0825 10.0292C75.7669 9.69698 75.3811 9.53086 74.9251 9.53086H70.5324Z" fill="white"/>
<path d="M92.5612 24.6397C91.1758 24.6397 89.9133 24.3686 88.7734 23.8265C87.6336 23.2844 86.6604 22.5762 85.8537 21.7018C85.0471 20.81 84.4158 19.7958 83.9599 18.6591C83.5215 17.5224 83.3023 16.3508 83.3023 15.1442C83.3023 13.9201 83.5302 12.7397 83.9862 11.6031C84.4596 10.4664 85.1085 9.46965 85.9326 8.61279C86.7744 7.73843 87.7651 7.0477 88.905 6.54057C90.0448 6.01596 91.2898 5.75365 92.6401 5.75365C94.0254 5.75365 95.288 6.0247 96.4278 6.5668C97.5677 7.1089 98.5409 7.82587 99.3475 8.71771C100.154 9.60955 100.777 10.6238 101.215 11.7605C101.654 12.8971 101.873 14.0513 101.873 15.2229C101.873 16.447 101.636 17.6274 101.162 18.764C100.707 19.9007 100.067 20.9062 99.2423 21.7805C98.4181 22.6374 97.4361 23.3281 96.2963 23.8527C95.1565 24.3774 93.9114 24.6397 92.5612 24.6397ZM87.695 15.1967C87.695 15.9136 87.8002 16.6131 88.0106 17.2951C88.2211 17.9596 88.5279 18.5542 88.9313 19.0788C89.3521 19.6034 89.8694 20.0231 90.4832 20.3379C91.0969 20.6526 91.7984 20.81 92.5875 20.81C93.4117 20.81 94.1306 20.6439 94.7444 20.3116C95.3581 19.9794 95.8667 19.5509 96.27 19.0263C96.6733 18.4842 96.9714 17.8809 97.1643 17.2164C97.3748 16.5344 97.48 15.8437 97.48 15.1442C97.48 14.4272 97.3748 13.7365 97.1643 13.072C96.9539 12.39 96.6383 11.7954 96.2174 11.2883C95.7965 10.7637 95.2792 10.3527 94.6655 10.0555C94.0693 9.7407 93.3766 9.58332 92.5875 9.58332C91.7633 9.58332 91.0443 9.74944 90.4306 10.0817C89.8344 10.3965 89.3258 10.8162 88.905 11.3408C88.5016 11.8654 88.1948 12.4687 87.9843 13.1507C87.7914 13.8152 87.695 14.4972 87.695 15.1967Z" fill="white"/>
<path d="M118.096 0.455078C118.096 1.03215 117.973 1.56551 117.728 2.05514C117.482 2.52729 117.131 2.93824 116.676 3.28798C116.237 3.62023 115.711 3.88254 115.097 4.0749C114.484 4.26726 113.8 4.36343 113.046 4.36343C112.292 4.36343 111.608 4.26726 110.994 4.0749C110.38 3.88254 109.845 3.62023 109.389 3.28798C108.951 2.93824 108.609 2.52729 108.364 2.05514C108.118 1.56551 107.995 1.03215 107.995 0.455078H110.599C110.599 0.68241 110.661 0.900998 110.784 1.11084C110.924 1.3032 111.099 1.47807 111.31 1.63545C111.538 1.77535 111.801 1.88902 112.099 1.97645C112.397 2.06389 112.712 2.1076 113.046 2.1076C113.677 2.1076 114.221 1.95022 114.676 1.63545C115.15 1.32069 115.43 0.927229 115.518 0.455078H118.096ZM108.784 17.7935L117.57 5.85858H120.779V24.4823H116.465V12.8359L107.785 24.4823H104.444V5.85858H108.784V17.7935Z" fill="white"/>
<path d="M13.5464 50.7129H0.0263038V32.0891H4.34012V46.9356H10.6793V32.0891H14.9931V46.9356H17.7024V55.2245H13.5464V50.7129Z" fill="white"/>
<path d="M33.1873 46.9356V50.7129H20.0617V32.0891H32.9506V35.8664H24.3755V39.4862H31.7406V42.9748H24.3755V46.9356H33.1873Z" fill="white"/>
<path d="M51.9566 32.0891V50.7129H47.6428V43.0798H40.1989V50.7129H35.8851V32.0891H40.1989V39.3026H47.6428V32.0891H51.9566Z" fill="white"/>
<path d="M69.867 35.8664H64.1854V50.7129H59.8716V35.8664H54.1637V32.0891H69.867V35.8664Z" fill="white"/>
<path d="M72.0527 50.7129V32.0891H80.0227C80.9171 32.0891 81.7325 32.2728 82.469 32.64C83.223 33.0072 83.8631 33.4881 84.3891 34.0827C84.9328 34.6772 85.3536 35.3505 85.6517 36.1024C85.9674 36.8544 86.1252 37.6151 86.1252 38.3845C86.1252 39.2064 85.9761 39.9933 85.678 40.7452C85.3975 41.4972 84.9941 42.1704 84.4681 42.765C83.9595 43.3596 83.337 43.8317 82.6005 44.1814C81.864 44.5312 81.0486 44.7061 80.1542 44.7061H76.3665V50.7129H72.0527ZM76.3665 40.9551H79.8912C80.3997 40.9551 80.8381 40.7365 81.2064 40.2993C81.5746 39.8621 81.7588 39.2239 81.7588 38.3845C81.7588 37.9473 81.6974 37.5713 81.5747 37.2566C81.4694 36.9418 81.3204 36.6795 81.1275 36.4697C80.9346 36.2598 80.7154 36.1112 80.4699 36.0237C80.2244 35.9188 79.9789 35.8664 79.7334 35.8664H76.3665V40.9551Z" fill="white"/>
<path d="M13.1256 73.1662V76.9434H0V58.3197H12.8888V62.0969H4.31381V65.7167H11.6789V69.2054H4.31381V73.1662H13.1256Z" fill="white"/>
<path d="M14.4029 73.1662H15.271C15.7444 73.1662 16.1565 73.0176 16.5072 72.7203C16.8755 72.423 17.1911 71.9159 17.4542 71.1989C17.7172 70.482 17.9452 69.5202 18.1381 68.3136C18.3485 67.0895 18.5326 65.5419 18.6904 63.6708L19.1639 58.3197H31.2899V73.1662H33.9992V81.4551H29.8432V76.9434H18.5326V81.4551H14.4029V73.1662ZM26.9761 73.1662V62.0969H23.0569L22.8201 64.7724C22.6272 66.8009 22.373 68.4972 22.0573 69.8612C21.7592 71.2252 21.3647 72.3268 20.8737 73.1662H26.9761Z" fill="white"/>
<path d="M40.7132 70.2546L49.4987 58.3197H52.7077V76.9434H48.3939V65.2971L39.7137 76.9434H36.3731V58.3197H40.7132V70.2546Z" fill="white"/>
<path d="M72.5064 58.3197V76.9434H68.1926V69.3103H60.7487V76.9434H56.4349V58.3197H60.7487V65.5331H68.1926V58.3197H72.5064Z" fill="white"/>
<path d="M84.367 77.1008C82.9816 77.1008 81.719 76.8298 80.5792 76.2877C79.4394 75.7456 78.4662 75.0373 77.6595 74.163C76.8529 73.2711 76.2216 72.2569 75.7656 71.1202C75.3272 69.9836 75.108 68.812 75.108 67.6053C75.108 66.3812 75.336 65.2009 75.7919 64.0642C76.2654 62.9276 76.9142 61.9308 77.7384 61.0739C78.5801 60.1996 79.5709 59.5088 80.7107 59.0017C81.8506 58.4771 83.0956 58.2148 84.4459 58.2148C85.8312 58.2148 87.0938 58.4858 88.2336 59.0279C89.3734 59.57 90.3467 60.287 91.1533 61.1789C91.96 62.0707 92.5825 63.0849 93.0209 64.2216C93.4593 65.3583 93.6785 66.5124 93.6785 67.684C93.6785 68.9081 93.4417 70.0885 92.9683 71.2252C92.5123 72.3618 91.8723 73.3673 91.0481 74.2417C90.2239 75.0985 89.2419 75.7893 88.1021 76.3139C86.9623 76.8385 85.7172 77.1008 84.367 77.1008ZM79.5008 67.6578C79.5008 68.3748 79.606 69.0742 79.8164 69.7562C80.0268 70.4208 80.3337 71.0153 80.737 71.5399C81.1579 72.0645 81.6752 72.4842 82.289 72.799C82.9027 73.1138 83.6041 73.2711 84.3933 73.2711C85.2174 73.2711 85.9364 73.105 86.5502 72.7728C87.1639 72.4405 87.6725 72.0121 88.0758 71.4875C88.4791 70.9454 88.7772 70.3421 88.9701 69.6776C89.1805 68.9956 89.2858 68.3048 89.2858 67.6053C89.2858 66.8884 89.1805 66.1976 88.9701 65.5331C88.7597 64.8511 88.444 64.2566 88.0232 63.7494C87.6023 63.2248 87.085 62.8139 86.4713 62.5166C85.875 62.2018 85.1824 62.0445 84.3933 62.0445C83.5691 62.0445 82.8501 62.2106 82.2364 62.5428C81.6401 62.8576 81.1316 63.2773 80.7107 63.8019C80.3074 64.3265 80.0005 64.9298 79.7901 65.6118C79.5972 66.2763 79.5008 66.9583 79.5008 67.6578Z" fill="white"/>
<path d="M96.2501 58.3197H110.217V62.0969H100.59V65.6643H105.114C107.131 65.6643 108.701 66.1539 109.823 67.1332C110.963 68.095 111.533 69.459 111.533 71.2252C111.533 73.0438 110.989 74.4515 109.902 75.4483C108.814 76.445 107.28 76.9434 105.299 76.9434H96.2501V58.3197ZM104.799 73.2974C105.553 73.2974 106.123 73.1138 106.509 72.7465C106.912 72.3618 107.114 71.8372 107.114 71.1727C107.114 70.5607 106.921 70.0623 106.535 69.6776C106.149 69.2754 105.57 69.0742 104.799 69.0742H100.59V73.2974H104.799Z" fill="white"/>
<path d="M122.076 77.1008C120.69 77.1008 119.428 76.8298 118.288 76.2877C117.148 75.7456 116.175 75.0373 115.368 74.163C114.562 73.2711 113.93 72.2569 113.474 71.1202C113.036 69.9836 112.817 68.812 112.817 67.6053C112.817 66.3812 113.045 65.2009 113.501 64.0642C113.974 62.9276 114.623 61.9308 115.447 61.0739C116.289 60.1996 117.28 59.5088 118.42 59.0017C119.559 58.4771 120.804 58.2148 122.155 58.2148C123.54 58.2148 124.803 58.4858 125.942 59.0279C127.082 59.57 128.056 60.287 128.862 61.1789C129.669 62.0707 130.291 63.0849 130.73 64.2216C131.168 65.3583 131.387 66.5124 131.387 67.684C131.387 68.9081 131.151 70.0885 130.677 71.2252C130.221 72.3618 129.581 73.3673 128.757 74.2417C127.933 75.0985 126.951 75.7893 125.811 76.3139C124.671 76.8385 123.426 77.1008 122.076 77.1008ZM117.21 67.6578C117.21 68.3748 117.315 69.0742 117.525 69.7562C117.736 70.4208 118.043 71.0153 118.446 71.5399C118.867 72.0645 119.384 72.4842 119.998 72.799C120.612 73.1138 121.313 73.2711 122.102 73.2711C122.926 73.2711 123.645 73.105 124.259 72.7728C124.873 72.4405 125.381 72.0121 125.785 71.4875C126.188 70.9454 126.486 70.3421 126.679 69.6776C126.889 68.9956 126.995 68.3048 126.995 67.6053C126.995 66.8884 126.889 66.1976 126.679 65.5331C126.469 64.8511 126.153 64.2566 125.732 63.7494C125.311 63.2248 124.794 62.8139 124.18 62.5166C123.584 62.2018 122.891 62.0445 122.102 62.0445C121.278 62.0445 120.559 62.2106 119.945 62.5428C119.349 62.8576 118.84 63.2773 118.42 63.8019C118.016 64.3265 117.709 64.9298 117.499 65.6118C117.306 66.2763 117.21 66.9583 117.21 67.6578Z" fill="white"/>
<path d="M133.959 76.9434V58.3197H141.929C142.823 58.3197 143.639 58.5033 144.375 58.8706C145.129 59.2378 145.769 59.7187 146.295 60.3132C146.839 60.9078 147.26 61.5811 147.558 62.333C147.874 63.0849 148.031 63.8456 148.031 64.6151C148.031 65.437 147.882 66.2239 147.584 66.9758C147.304 67.7278 146.9 68.401 146.374 68.9956C145.866 69.5901 145.243 70.0623 144.507 70.412C143.77 70.7618 142.955 70.9366 142.06 70.9366H138.273V76.9434H133.959ZM138.273 67.1857H141.797C142.306 67.1857 142.744 66.9671 143.113 66.5299C143.481 66.0927 143.665 65.4544 143.665 64.6151C143.665 64.1779 143.604 63.8019 143.481 63.4871C143.376 63.1724 143.227 62.9101 143.034 62.7002C142.841 62.4904 142.622 62.3417 142.376 62.2543C142.131 62.1494 141.885 62.0969 141.64 62.0969H138.273V67.1857Z" fill="white"/>
<path d="M149.267 67.4742C149.267 66.355 149.478 65.2446 149.898 64.1429C150.319 63.0237 150.933 62.027 151.74 61.1526C152.546 60.2783 153.528 59.57 154.686 59.0279C155.843 58.4858 157.158 58.2148 158.631 58.2148C160.385 58.2148 161.902 58.5908 163.182 59.3427C164.479 60.0947 165.444 61.0739 166.075 62.2805L162.761 64.5888C162.55 64.0992 162.279 63.697 161.945 63.3822C161.63 63.05 161.279 62.7877 160.893 62.5953C160.508 62.3855 160.113 62.2456 159.71 62.1756C159.306 62.0882 158.912 62.0445 158.526 62.0445C157.702 62.0445 156.983 62.2106 156.369 62.5428C155.755 62.8751 155.247 63.3035 154.843 63.8281C154.44 64.3527 154.142 64.9473 153.949 65.6118C153.756 66.2763 153.66 66.9496 153.66 67.6316C153.66 68.366 153.774 69.0742 154.002 69.7562C154.23 70.4382 154.554 71.0415 154.975 71.5662C155.413 72.0908 155.931 72.5105 156.527 72.8252C157.141 73.1225 157.825 73.2711 158.579 73.2711C158.964 73.2711 159.359 73.2274 159.762 73.14C160.183 73.0351 160.578 72.8864 160.946 72.6941C161.332 72.4842 161.682 72.2219 161.998 71.9072C162.314 71.5749 162.568 71.1727 162.761 70.7006L166.286 72.7728C166.005 73.4548 165.584 74.0668 165.023 74.6089C164.479 75.151 163.848 75.6057 163.129 75.9729C162.41 76.3401 161.647 76.6199 160.841 76.8123C160.034 77.0046 159.245 77.1008 158.473 77.1008C157.123 77.1008 155.878 76.8298 154.738 76.2877C153.616 75.7281 152.643 74.9936 151.819 74.0843C151.012 73.175 150.381 72.1432 149.925 70.9891C149.486 69.8349 149.267 68.6633 149.267 67.4742Z" fill="white"/>
<path d="M182.506 62.0969H176.824V76.9434H172.51V62.0969H166.802V58.3197H182.506V62.0969Z" fill="white"/>
<path d="M200 72.1695C200 72.9739 199.833 73.6733 199.5 74.2679C199.167 74.8625 198.711 75.3608 198.132 75.763C197.554 76.1478 196.879 76.445 196.107 76.6549C195.335 76.8472 194.52 76.9434 193.661 76.9434H184.56V58.3197H194.95C195.599 58.3197 196.186 58.4596 196.712 58.7394C197.238 59.0192 197.685 59.3864 198.054 59.8411C198.422 60.2783 198.702 60.7854 198.895 61.3625C199.106 61.9221 199.211 62.4991 199.211 63.0937C199.211 63.9855 198.983 64.8249 198.527 65.6118C198.089 66.3987 197.422 66.9933 196.528 67.3955C197.598 67.7103 198.439 68.2698 199.053 69.0742C199.684 69.8787 200 70.9104 200 72.1695ZM195.607 71.3039C195.607 70.7268 195.441 70.2371 195.107 69.8349C194.774 69.4327 194.353 69.2316 193.845 69.2316H188.874V73.2974H193.661C194.222 73.2974 194.687 73.1138 195.055 72.7465C195.423 72.3793 195.607 71.8984 195.607 71.3039ZM188.874 61.992V65.8479H193.108C193.582 65.8479 194.003 65.6905 194.371 65.3757C194.739 65.061 194.923 64.5713 194.923 63.9068C194.923 63.2948 194.757 62.8226 194.424 62.4904C194.108 62.1581 193.722 61.992 193.266 61.992H188.874Z" fill="white"/>
</svg>
