<svg width="165" height="21" viewBox="0 0 165 21" fill="none" xmlns="http://www.w3.org/2000/svg">
<path d="M50.7931 14.0609H50.1992L48.4131 8.30078H49.2838L50.5207 12.2793L51.7084 8.30078H52.2577L53.4454 12.2793L54.6778 8.30078H55.5485L53.7669 14.0609H53.1686L51.9808 10.2208L50.7931 14.0609Z" fill="white"/>
<path d="M63.5024 13.2393V14.0609H59.6176V8.30078H63.4131V9.12239H60.4839V10.6763H63.1809V11.5024H60.4839V13.2393H63.5024Z" fill="white"/>
<path d="M71.2731 10.9978C71.425 11.0841 71.5619 11.1943 71.6839 11.3282C71.7881 11.4443 71.8819 11.5902 71.9653 11.7658C72.0516 11.9414 72.0947 12.1573 72.0947 12.4133C72.0947 12.6336 72.0486 12.8434 71.9563 13.0429C71.867 13.2393 71.739 13.4135 71.5723 13.5653C71.4086 13.7141 71.2151 13.8347 70.9918 13.927C70.7715 14.0163 70.5304 14.0609 70.2685 14.0609H67.9376V8.30078H70.2238C70.45 8.30078 70.6629 8.34395 70.8623 8.43027C71.0648 8.51362 71.2404 8.62823 71.3892 8.7741C71.5381 8.91996 71.6542 9.08964 71.7375 9.28313C71.8239 9.47365 71.867 9.67905 71.867 9.89934C71.867 10.0809 71.8343 10.2417 71.7688 10.3816C71.7063 10.5185 71.6393 10.6316 71.5678 10.7209C71.4815 10.8311 71.3833 10.9234 71.2731 10.9978ZM68.8039 10.6763H70.2238C70.456 10.6763 70.651 10.5989 70.8088 10.4441C70.9665 10.2893 71.0454 10.1077 71.0454 9.89934C71.0454 9.69096 70.965 9.50937 70.8043 9.35458C70.6465 9.19978 70.453 9.12239 70.2238 9.12239H68.8039V10.6763ZM70.2685 13.2393C70.4024 13.2393 70.5289 13.2155 70.648 13.1679C70.7671 13.1173 70.8683 13.0518 70.9516 12.9714C71.038 12.8881 71.1049 12.7913 71.1526 12.6812C71.2032 12.571 71.2285 12.452 71.2285 12.324C71.2285 12.196 71.2032 12.0769 71.1526 11.9667C71.1049 11.8566 71.038 11.7613 70.9516 11.681C70.8683 11.5976 70.7671 11.5321 70.648 11.4845C70.5289 11.4339 70.4024 11.4086 70.2685 11.4086H68.8039V13.2393H70.2685Z" fill="white"/>
<path d="M81.9297 14.0609H81.0143L83.2112 8.30078H83.9391L86.136 14.0609H85.2206L84.716 12.7348H82.4298L81.9297 14.0609ZM84.399 11.9132L83.5729 9.62696L82.7513 11.9132H84.399Z" fill="white"/>
<path d="M93.7236 13.2393V14.0609H90.1113V8.30078H90.9775V13.2393H93.7236Z" fill="white"/>
<path d="M96.8818 8.30078H101.226V9.12239H99.4851V14.0609H98.6188V9.12239H96.8818V8.30078Z" fill="white"/>
<path d="M109.225 13.2393V14.0609H105.34V8.30078H109.136V9.12239H106.206V10.6763H108.903V11.5024H106.206V13.2393H109.225Z" fill="white"/>
<path d="M115.531 11.7747H114.526V14.0609H113.66V8.30078H115.946C116.185 8.30078 116.409 8.34692 116.621 8.4392C116.835 8.52851 117.02 8.65205 117.174 8.80982C117.329 8.96461 117.453 9.14918 117.545 9.36351C117.637 9.57486 117.683 9.79961 117.683 10.0378C117.683 10.3741 117.616 10.648 117.482 10.8594C117.349 11.0677 117.201 11.233 117.04 11.355C116.853 11.5009 116.64 11.611 116.402 11.6854L117.817 14.0609H116.857L115.531 11.7747ZM114.526 10.9531H115.946C116.063 10.9531 116.171 10.9293 116.272 10.8817C116.377 10.8311 116.467 10.7656 116.545 10.6852C116.625 10.6019 116.689 10.5051 116.737 10.395C116.787 10.2848 116.813 10.1658 116.813 10.0378C116.813 9.90976 116.787 9.79068 116.737 9.68054C116.689 9.5704 116.625 9.47514 116.545 9.39476C116.467 9.31141 116.377 9.24592 116.272 9.19829C116.171 9.14769 116.063 9.12239 115.946 9.12239H114.526V10.9531Z" fill="white"/>
<path d="M126.459 8.30078V14.0609H125.727L122.936 9.94399V14.0609H122.07V8.30078H122.797L125.588 12.4133V8.30078H126.459Z" fill="white"/>
<path d="M131.35 14.0609H130.434L132.631 8.30078H133.359L135.556 14.0609H134.64L134.136 12.7348H131.85L131.35 14.0609ZM133.819 11.9132L132.993 9.62696L132.171 11.9132H133.819Z" fill="white"/>
<path d="M138.616 8.30078H142.96V9.12239H141.219V14.0609H140.353V9.12239H138.616V8.30078Z" fill="white"/>
<path d="M147.94 14.0609H147.074V8.30078H147.94V14.0609Z" fill="white"/>
<path d="M152.009 8.30078H152.925L154.528 12.7348L156.126 8.30078H157.042L154.939 14.0609H154.117L152.009 8.30078Z" fill="white"/>
<path d="M165 13.2393V14.0609H161.115V8.30078H164.911V9.12239H161.982V10.6763H164.679V11.5024H161.982V13.2393H165Z" fill="white"/>
<path fill-rule="evenodd" clip-rule="evenodd" d="M11.8973 20.0655H15.9686L18.2697 17.6692L20.5707 20.0655H24.6261L18.2617 13.4378L11.8973 20.0655ZM0 5.78447L6.8581 19.5735L11.0094 15.4598L6.04656 7.40647L0 5.78447ZM36.606 5.78234L29.748 19.5713L25.5967 15.4577L30.5596 7.40434L36.606 5.78234ZM18.2642 0.455078L11.4218 10.0679L13.2479 13.2197L18.2642 8.15434L23.2803 13.2197L25.1063 10.0679L18.2642 0.455078Z" fill="white"/>
</svg>
