<svg width="35" height="37" viewBox="0 0 35 37" fill="none" xmlns="http://www.w3.org/2000/svg">
<path d="M11.8014 25.4365C13.685 22.1388 12.4705 18.773 17.6151 17.6408C24.2215 16.1869 24.3374 20.5031 28.1195 23.1903C31.026 25.2553 34.6173 23.1903 34.9903 29.2022C35.2904 34.0392 27.9408 32.0255 23.2307 33.1662C17.3399 34.5927 11.8017 39.7063 7.83747 35.1481C3.21894 29.8376 9.76965 28.9935 11.8014 25.4365Z" fill="#2B2B2B"/>
<ellipse cx="15.7554" cy="11.1935" rx="3.30326" ry="4.95316" transform="rotate(-15.1359 15.7554 11.1935)" fill="#2B2B2B"/>
<ellipse cx="23.8196" cy="12.1553" rx="3.30326" ry="4.95316" transform="rotate(-6.27041 23.8196 12.1553)" fill="#2B2B2B"/>
<ellipse cx="9.49738" cy="15.5743" rx="3.30326" ry="4.95316" transform="rotate(-20.5276 9.49738 15.5743)" fill="#2B2B2B"/>
<ellipse cx="5.56856" cy="23.1097" rx="3.10222" ry="4.74434" transform="rotate(-33.2963 5.56856 23.1097)" fill="#2B2B2B"/>
<ellipse cx="30.6224" cy="18.0039" rx="3.12457" ry="4.76478" transform="rotate(-6.27041 30.6224 18.0039)" fill="#2B2B2B"/>
<path d="M2.88528 15.3927C2.64563 14.0726 2.88528 11.9573 2.88528 11.9573C2.88528 11.9573 1.69605 13.5428 1.43101 15.3927C1.21435 16.9049 1.69611 19.2905 1.69611 19.2905C1.69611 19.2905 2.02151 18.5333 2.42283 18.2335C2.83465 17.9258 3.67807 17.8371 3.67807 17.8371C3.67807 17.8371 3.06455 16.3801 2.88528 15.3927Z" fill="#2B2B2B"/>
<path d="M7.10306 7.53256C6.8634 6.21254 7.10306 4.09717 7.10306 4.09717C7.10306 4.09717 5.91382 5.68273 5.64879 7.53256C5.43212 9.04478 5.91388 11.4304 5.91388 11.4304C5.91388 11.4304 6.23928 10.6732 6.6406 10.3734C7.05242 10.0657 7.89584 9.97698 7.89584 9.97698C7.89584 9.97698 7.28233 8.51997 7.10306 7.53256Z" fill="#2B2B2B"/>
<path d="M21.8003 3.75102C21.2708 2.50405 19.8855 0.861561 19.8855 0.861561C19.8855 0.861561 21.7929 1.51674 23.0522 2.92141C24.0816 4.06972 24.9966 6.35106 24.9966 6.35106C24.9966 6.35106 24.2944 5.8998 23.7818 5.87656C23.2558 5.85272 22.4803 6.25923 22.4803 6.25923C22.4803 6.25923 22.1963 4.68378 21.8003 3.75102Z" fill="#2B2B2B"/>
<path d="M29.3056 9.74111C28.9193 8.44265 27.7268 6.65521 27.7268 6.65521C27.7268 6.65521 29.5488 7.5201 30.6426 9.05707C31.5368 10.3135 32.1903 12.6831 32.1903 12.6831C32.1903 12.6831 31.5431 12.1559 31.0364 12.0754C30.5163 11.9927 29.7002 12.3097 29.7002 12.3097C29.7002 12.3097 29.5946 10.7124 29.3056 9.74111Z" fill="#2B2B2B"/>
<path d="M14.0485 5.28454C13.5032 5.44404 12.9254 6.20945 12.9254 6.20945C12.9254 6.20945 12.44 4.29356 12.3308 3.03832C12.2347 1.93309 12.3308 0.19751 12.3308 0.19751C12.3308 0.19751 13.4508 1.51518 14.0485 2.44373C14.7855 3.58859 15.6341 5.5488 15.6341 5.5488C15.6341 5.5488 14.651 5.10831 14.0485 5.28454Z" fill="#2B2B2B"/>
</svg>
