<svg width="27" height="27" viewBox="0 0 27 27" fill="none" xmlns="http://www.w3.org/2000/svg">
<path d="M26.65 20.4274C25.6473 18.5316 22.165 16.4761 22.0116 16.3862C21.5642 16.1315 21.0972 15.9967 20.6603 15.9967C20.0106 15.9967 19.4787 16.2943 19.1566 16.8357C18.6472 17.4449 18.0155 18.1571 17.8621 18.2675C16.6756 19.0725 15.7467 18.9811 14.7189 17.9533L8.98286 12.2168C7.96159 11.1955 7.8677 10.2551 8.66724 9.07505C8.7791 8.92074 9.49125 8.2885 10.1005 7.77861C10.489 7.54739 10.7557 7.20381 10.8726 6.78232C11.0279 6.22149 10.9135 5.56179 10.547 4.91906C10.4606 4.77124 8.40406 1.28845 6.50934 0.286155C6.15577 0.0988807 5.75725 0 5.35773 0C4.69953 0 4.08027 0.25669 3.61484 0.721629L2.34737 1.9886C0.342784 3.99268 -0.382841 6.26444 0.189469 8.74045C0.666893 10.804 2.05821 12.9998 4.32548 15.2666L11.6691 22.6102C14.5387 25.4798 17.2744 26.935 19.8003 26.935C21.6586 26.935 23.39 26.1455 24.9471 24.5888L26.2141 23.3219C26.9841 22.5523 27.1589 21.3887 26.65 20.4274Z" fill="white"/>
<path d="M14.7627 12.4463C14.8237 12.4718 14.8886 12.4848 14.9535 12.4848H20.9463C21.2219 12.4848 21.4457 12.2615 21.4457 11.9854C21.4457 11.7092 21.2219 11.486 20.9463 11.486H16.159L23.7963 3.84869C23.9916 3.65343 23.9916 3.33781 23.7963 3.14254C23.6011 2.94728 23.2854 2.94728 23.0902 3.14254L15.4529 10.7798V5.9926C15.4529 5.71644 15.2292 5.49321 14.9535 5.49321C14.6778 5.49321 14.4541 5.71644 14.4541 5.9926V11.9854C14.4541 12.0503 14.4676 12.1152 14.4926 12.1761C14.5435 12.2985 14.6409 12.3959 14.7627 12.4463Z" fill="white"/>
</svg>
