<svg width="41" height="41" viewBox="0 0 41 41" fill="none" xmlns="http://www.w3.org/2000/svg">
<path d="M34.254 24.7803C34.2455 24.7803 34.237 24.7803 34.2278 24.7796L27.8254 24.5245L3.06401 24.3842C2.71687 24.3823 2.42835 24.1155 2.39888 23.7693C2.36973 23.4232 2.60933 23.1124 2.95118 23.0521L6.87052 22.3611C6.91849 22.352 6.96662 22.3473 7.0145 22.3513L21.1373 22.9144L6.28443 21.1379C5.92224 21.0946 5.66102 20.7701 5.69578 20.4069C5.71964 20.1592 5.87571 19.9553 6.08784 19.8595L3.24499 18.9759C2.89096 18.8657 2.69325 18.4894 2.80304 18.1354C2.91322 17.7815 3.29015 17.5854 3.64354 17.6935L6.74096 18.6566L22.253 20.9628L37.6171 22.0891C37.9867 22.1159 38.2639 22.4379 38.2372 22.8077C38.2097 23.1767 37.8884 23.456 37.5187 23.4278L36.3804 23.3445C36.4212 23.4239 36.4475 23.5124 36.4539 23.6055C36.4762 23.9195 36.2775 24.2066 35.9755 24.2965L34.4453 24.752C34.3838 24.7711 34.3195 24.7803 34.254 24.7803Z" fill="#2B2B2B"/>
<path d="M26.1625 30.558C25.9332 30.558 25.7089 30.4392 25.5843 30.2282C25.3995 29.9162 25.4966 29.5143 25.802 29.3201L35.5865 23.108C29.6535 20.4004 25.7346 18.6311 25.121 18.3834C24.9944 18.3545 24.8744 18.289 24.7833 18.1979C24.7072 18.1238 24.6529 18.0339 24.6195 17.9376C24.4986 17.7501 23.9796 16.9778 23.5128 16.296C23.341 16.0449 23.3594 15.7093 23.5586 15.4785C23.7573 15.2483 24.0864 15.1815 24.3604 15.3133L38.0075 21.9482C38.2264 22.0545 38.3707 22.2715 38.3844 22.514C38.3917 22.6438 38.3615 22.7703 38.2999 22.8798C38.4801 22.9978 38.595 23.197 38.6028 23.4167C38.6118 23.6703 38.4769 23.9077 38.254 24.0296L26.485 30.4753C26.3829 30.5316 26.2721 30.558 26.1625 30.558Z" fill="#2B2B2B"/>
<path d="M24.1767 30.7749C23.9355 30.7749 23.7022 30.6445 23.5816 30.4157C23.4097 30.0871 23.5363 29.6814 23.8647 29.509L36.6483 22.8032L23.7323 11.4001C23.4544 11.1543 23.4282 10.7301 23.6734 10.4521C23.9186 10.1748 24.3427 10.1473 24.6207 10.3932L38.2677 22.4413C38.4334 22.5874 38.5168 22.8057 38.4898 23.0253C38.4637 23.2443 38.3306 23.4364 38.1351 23.5393L24.4881 30.6983C24.3892 30.7499 24.2816 30.7749 24.1767 30.7749Z" fill="#2B2B2B"/>
</svg>
