<svg width="29" height="24" viewBox="0 0 29 24" fill="none" xmlns="http://www.w3.org/2000/svg">
<path d="M25.4484 6.34764C25.4419 6.34848 25.4353 6.34933 25.4281 6.34964L20.4399 6.77335L1.23885 9.11962C0.969672 9.15255 0.717465 8.95813 0.65746 8.67157C0.597711 8.38504 0.749985 8.10131 1.00838 8.01681L3.97103 7.04909C4.00722 7.03668 4.044 7.02794 4.08153 7.02653L15.0848 6.0923L3.38556 6.08451C3.10027 6.08432 2.86303 5.83896 2.85096 5.53175C2.84284 5.32219 2.94188 5.13616 3.09596 5.03497L0.798341 4.57892C0.512198 4.522 0.318599 4.227 0.365651 3.92003C0.413021 3.61308 0.684019 3.41158 0.969451 3.46689L3.47285 3.96404L15.7397 4.3493L27.7653 3.76254C28.0546 3.7482 28.304 3.98981 28.3229 4.30172C28.3412 4.6131 28.1223 4.87864 27.8328 4.89179L26.9419 4.93539C26.982 4.9977 27.0119 5.06915 27.0269 5.14632C27.0778 5.40667 26.9547 5.66657 26.7303 5.77176L25.5937 6.30496C25.5481 6.32702 25.4992 6.34112 25.4484 6.34764Z" fill="#2B2B2B"/>
<path d="M25.1545 23.7587C25.1479 23.7587 25.1412 23.7587 25.1341 23.7582L20.1326 23.579L0.789047 23.4805C0.517864 23.4791 0.292473 23.2916 0.269452 23.0484C0.246681 22.8052 0.433851 22.5869 0.700905 22.5445L3.76268 22.059C3.80015 22.0526 3.83775 22.0493 3.87516 22.0521L14.9078 22.4478L3.30483 21.1996C3.02188 21.1692 2.81782 20.9412 2.84497 20.686C2.86361 20.5119 2.98554 20.3687 3.15125 20.3014L0.930425 19.6806C0.653862 19.6032 0.49941 19.3388 0.585175 19.0901C0.671253 18.8414 0.965707 18.7036 1.24177 18.7796L3.66146 19.4562L15.7794 21.0766L27.7817 21.8679C28.0705 21.8868 28.2871 22.1129 28.2662 22.3728C28.2447 22.6321 27.9937 22.8283 27.7049 22.8085L26.8157 22.7499C26.8475 22.8057 26.868 22.8679 26.8731 22.9333C26.8905 23.1539 26.7353 23.3557 26.4993 23.4188L25.304 23.7389C25.256 23.7523 25.2057 23.7587 25.1545 23.7587Z" fill="#2B2B2B"/>
<path d="M3.38067 11.7587C3.38724 11.7587 3.39393 11.7587 3.40106 11.7593L8.40259 11.9744L27.7461 12.0927C28.0173 12.0943 28.2427 12.3192 28.2657 12.6111C28.2885 12.9029 28.1013 13.1649 27.8343 13.2158L24.7725 13.7984C24.735 13.8061 24.6974 13.81 24.66 13.8067L13.6273 13.3319L25.2303 14.8296C25.5133 14.8662 25.7173 15.1397 25.6902 15.446C25.6715 15.6549 25.5496 15.8268 25.3839 15.9075L27.6047 16.6525C27.8813 16.7454 28.0357 17.0626 27.95 17.3611C27.8639 17.6595 27.5694 17.8249 27.2934 17.7337L24.8737 16.9217L12.7558 14.9773L0.753411 14.0277C0.464649 14.0051 0.248079 13.7337 0.268973 13.4219C0.290492 13.1107 0.541469 12.8752 0.830293 12.8991L1.71947 12.9693C1.68763 12.9024 1.66711 12.8277 1.66205 12.7492C1.64466 12.4845 1.79986 12.2424 2.03582 12.1667L3.23116 11.7826C3.2792 11.7665 3.32943 11.7587 3.38067 11.7587Z" fill="#2B2B2B"/>
</svg>
