<svg width="33" height="28" viewBox="0 0 33 28" fill="none" xmlns="http://www.w3.org/2000/svg">
<path d="M26.9834 4.10327C27.229 4.07757 27.4824 4.1796 27.6394 4.39156C27.8723 4.70491 27.8134 5.14613 27.5082 5.38828L17.7277 13.1364C24.3838 15.3706 28.7783 16.8259 29.463 17.0224C29.6018 17.0392 29.7376 17.0958 29.8454 17.1832C29.9351 17.254 30.0034 17.3441 30.0499 17.4435C30.2003 17.6308 30.8427 18.3995 31.4189 19.0772C31.631 19.3269 31.6489 19.6883 31.4615 19.9577C31.2745 20.2264 30.9296 20.3349 30.6214 20.2245L15.2654 14.6495C15.0191 14.5603 14.8402 14.3441 14.7984 14.086C14.776 13.9478 14.7942 13.809 14.8479 13.6849C14.6417 13.5787 14.4964 13.3782 14.4634 13.1439C14.4253 12.8734 14.5432 12.604 14.7682 12.4485L26.6474 4.22789C26.7504 4.15618 26.866 4.11556 26.9834 4.10327Z" fill="#202020"/>
<path d="M29.0851 3.64842C29.3433 3.62139 29.6078 3.73492 29.7626 3.96637C29.9834 4.29892 29.8933 4.74748 29.5611 4.96888L16.6246 13.5817L31.7323 24.344C32.0573 24.576 32.133 25.0274 31.9016 25.3525C31.67 25.6769 31.219 25.7539 30.8939 25.5217L14.9313 14.1508C14.7374 14.0128 14.6237 13.7885 14.6279 13.5502C14.6314 13.3129 14.7523 13.0923 14.9501 12.9602L28.7602 3.76538C28.8603 3.69899 28.9728 3.66018 29.0851 3.64842Z" fill="#202020"/>
<path d="M5.81904 23.4556C5.57426 23.4879 5.3182 23.3928 5.15546 23.1851C4.91421 22.8782 4.96114 22.4356 5.25974 22.1852L14.8271 14.1754C8.11297 12.122 3.68076 10.7861 2.99097 10.6083C2.85177 10.5953 2.71442 10.5423 2.60439 10.4578C2.51275 10.3895 2.44205 10.3013 2.39283 10.2032C2.23742 10.02 1.57453 9.26895 0.980209 8.60708C0.761387 8.36328 0.733731 8.00248 0.91384 7.72807C1.09344 7.45442 1.43529 7.33665 1.74635 7.4387L17.2476 12.5963C17.4962 12.6788 17.6808 12.8901 17.7296 13.1469C17.7557 13.2845 17.7413 13.4238 17.691 13.5493C17.9 13.6499 18.0506 13.8463 18.09 14.0797C18.1354 14.3491 18.0248 14.6215 17.8041 14.783L6.15157 23.3219C6.05053 23.3964 5.93605 23.4401 5.81904 23.4556Z" fill="#202020"/>
<path d="M3.72955 23.9673C3.47212 24.0013 3.20467 23.8949 3.0437 23.6678C2.81396 23.3413 2.89189 22.8905 3.21801 22.6602L15.9168 13.7006L0.523605 3.35081C0.192379 3.12768 0.104532 2.67857 0.32705 2.34733C0.549744 2.01677 0.998502 1.92758 1.32984 2.15087L17.5941 13.086C17.7917 13.2186 17.9114 13.4398 17.9136 13.6781C17.9166 13.9154 17.8016 14.1392 17.6075 14.2766L4.05113 23.8416C3.95286 23.9106 3.84151 23.9525 3.72955 23.9673Z" fill="#202020"/>
</svg>
