<svg width="25" height="27" viewBox="0 0 25 27" fill="none" xmlns="http://www.w3.org/2000/svg">
<path d="M14.9844 18.3646L25.0004 26.1017V11.457L14.9844 18.3646Z" fill="white"/>
<path d="M0 11.2471V26.189C3.03527 23.6636 7.61205 19.9145 9.9375 18.2997L0 11.2471Z" fill="white"/>
<path d="M14.2116 18.8951C13.1598 18.1732 11.7169 18.1687 10.6406 18.8995C8.46914 20.3732 3.80039 24.1937 0.681641 26.7861H24.4263L14.2116 18.8951Z" fill="white"/>
<path d="M15.0294 1.02813C14.3513 0.364732 13.4535 0 12.5004 0C11.5473 0 10.6495 0.364732 9.97137 1.02813L0.369141 10.4143L10.7906 17.8098C11.862 17.342 13.0991 17.3522 14.1611 17.8478L24.7589 10.5388L15.0294 1.02813ZM12.8165 15.4938C12.7754 15.5353 12.7258 15.5679 12.6709 15.5906C12.6165 15.6134 12.5584 15.625 12.5004 15.625C12.4424 15.625 12.3843 15.6134 12.3299 15.5906C12.2749 15.5679 12.2254 15.5353 12.1843 15.4938L9.05976 12.3692C8.88521 12.1946 8.88521 11.9125 9.05976 11.7379C9.23432 11.5634 9.51646 11.5634 9.69102 11.7379L12.054 14.1009V6.69643C12.054 6.44955 12.2535 6.25 12.5004 6.25C12.7473 6.25 12.9468 6.44955 12.9468 6.69643V14.1009L15.3098 11.7379C15.4843 11.5634 15.7665 11.5634 15.941 11.7379C16.1156 11.9125 16.1156 12.1946 15.941 12.3692L12.8165 15.4938Z" fill="white"/>
</svg>
