<svg width="47" height="33" viewBox="0 0 47 33" fill="none" xmlns="http://www.w3.org/2000/svg">
<path d="M23.4996 0.166748C13.9038 0.166748 5.53294 6.08758 1.44961 14.6626C0.837109 15.8876 0.837109 17.3167 1.44961 18.5417C5.53294 26.9126 13.9038 32.8334 23.4996 32.8334C33.0954 32.8334 41.4663 26.9126 45.5496 18.3376C46.1621 17.1126 46.1621 15.6834 45.5496 14.4584C41.4663 6.08758 33.0954 0.166748 23.4996 0.166748ZM23.4996 24.6667C19.0079 24.6667 15.3329 20.9917 15.3329 16.5001C15.3329 12.0084 19.0079 8.33341 23.4996 8.33341C27.9913 8.33341 31.6663 12.0084 31.6663 16.5001C31.6663 20.9917 27.9913 24.6667 23.4996 24.6667Z" fill="#2B2B2B"/>
</svg>
