<svg width="64" height="64" viewBox="0 0 64 64" fill="none" xmlns="http://www.w3.org/2000/svg">
<circle cx="31.9101" cy="31.9101" r="31.9101" fill="white"/>
<circle cx="29.9567" cy="33.864" r="19.5368" fill="#2B2B2B"/>
<path d="M15.5367 10.4199C12.7122 10.4199 10.4199 12.7122 10.4199 15.5367V48.2841C10.4199 51.1086 12.7122 53.4009 15.5367 53.4009H48.2841C51.1086 53.4009 53.4009 51.1086 53.4009 48.2841V15.5367C53.4009 12.7122 51.1086 10.4199 48.2841 10.4199H15.5367ZM31.9104 15.5367C36.4336 15.5367 40.0973 19.2003 40.0973 23.7236C40.0973 28.2468 36.4336 31.9104 31.9104 31.9104C27.3872 31.9104 23.7236 28.2468 23.7236 23.7236C23.7236 19.2003 27.3872 15.5367 31.9104 15.5367ZM31.9104 19.6301C30.8248 19.6301 29.7836 20.0614 29.0159 20.8291C28.2483 21.5967 27.817 22.6379 27.817 23.7236C27.817 24.8092 28.2483 25.8504 29.0159 26.618C29.7836 27.3857 30.8248 27.817 31.9104 27.817C32.9961 27.817 34.0372 27.3857 34.8049 26.618C35.5726 25.8504 36.0038 24.8092 36.0038 23.7236C36.0038 22.6379 35.5726 21.5967 34.8049 20.8291C34.0372 20.0614 32.9961 19.6301 31.9104 19.6301V19.6301ZM40.0973 33.4354C40.742 33.4354 41.3771 33.7418 41.7762 34.3149C42.4209 35.2359 42.1958 36.5164 41.2645 37.1611C39.7295 38.2356 38.0403 39.0124 36.2597 39.5036L41.5404 44.7943C42.3488 45.5925 42.3488 46.8823 41.5404 47.6805C41.1412 48.0796 40.6192 48.2841 40.0973 48.2841C39.5753 48.2841 39.0533 48.0796 38.6542 47.6805L31.9104 40.9467L25.1666 47.6805C24.7675 48.0796 24.2455 48.2841 23.7236 48.2841C23.2016 48.2841 22.6796 48.0796 22.2805 47.6805C21.472 46.8823 21.472 45.5925 22.2805 44.7943L27.5611 39.5036C25.7907 39.0124 24.1013 38.2456 22.5663 37.1711C21.6453 36.5264 21.4099 35.2561 22.0546 34.3249C22.4537 33.7518 23.0886 33.4454 23.7435 33.4454C24.1427 33.4454 24.5526 33.5676 24.9108 33.8132C26.9678 35.2459 29.393 36.0038 31.9104 36.0038C34.4381 36.0038 36.8628 35.2461 38.93 33.8032C39.2779 33.5576 39.6879 33.4354 40.0973 33.4354Z" fill="white"/>
</svg>
