<svg width="49" height="50" viewBox="0 0 49 50" fill="none" xmlns="http://www.w3.org/2000/svg">
<circle cx="24.5" cy="24.9551" r="24.5" fill="white"/>
<circle cx="23" cy="26.4551" r="15" fill="#5386E4"/>
<path d="M11.9286 8.45508C9.76 8.45508 8 10.2151 8 12.3836V37.5265C8 39.6951 9.76 41.4551 11.9286 41.4551H37.0714C39.24 41.4551 41 39.6951 41 37.5265V12.3836C41 10.2151 39.24 8.45508 37.0714 8.45508H11.9286ZM24.5 12.3836C27.9729 12.3836 30.7857 15.1965 30.7857 18.6694C30.7857 22.1422 27.9729 24.9551 24.5 24.9551C21.0271 24.9551 18.2143 22.1422 18.2143 18.6694C18.2143 15.1965 21.0271 12.3836 24.5 12.3836ZM24.5 15.5265C23.6665 15.5265 22.8671 15.8576 22.2777 16.447C21.6883 17.0364 21.3571 17.8358 21.3571 18.6694C21.3571 19.5029 21.6883 20.3023 22.2777 20.8917C22.8671 21.4811 23.6665 21.8122 24.5 21.8122C25.3335 21.8122 26.1329 21.4811 26.7223 20.8917C27.3117 20.3023 27.6429 19.5029 27.6429 18.6694C27.6429 17.8358 27.3117 17.0364 26.7223 16.447C26.1329 15.8576 25.3335 15.5265 24.5 15.5265V15.5265ZM30.7857 26.126C31.2807 26.126 31.7683 26.3612 32.0748 26.8012C32.5698 27.5083 32.3969 28.4915 31.6819 28.9865C30.5033 29.8115 29.2064 30.4079 27.8393 30.785L31.8937 34.8471C32.5144 35.46 32.5144 36.4502 31.8937 37.0631C31.5873 37.3695 31.1864 37.5265 30.7857 37.5265C30.385 37.5265 29.9842 37.3695 29.6777 37.0631L24.5 31.893L19.3223 37.0631C19.0158 37.3695 18.615 37.5265 18.2143 37.5265C17.8136 37.5265 17.4127 37.3695 17.1063 37.0631C16.4856 36.4502 16.4856 35.46 17.1063 34.8471L21.1607 30.785C19.8014 30.4079 18.5043 29.8191 17.3258 28.9941C16.6186 28.4991 16.4379 27.5239 16.9329 26.8089C17.2393 26.3689 17.7268 26.1336 18.2296 26.1336C18.5361 26.1336 18.8508 26.2274 19.1258 26.416C20.7051 27.516 22.5671 28.0979 24.5 28.0979C26.4407 28.0979 28.3024 27.5162 29.8895 26.4083C30.1567 26.2198 30.4714 26.126 30.7857 26.126Z" fill="white"/>
</svg>
