<svg width="51" height="51" viewBox="0 0 51 51" fill="none" xmlns="http://www.w3.org/2000/svg">
<path d="M9.74539 27.6977C9.60567 27.4942 9.57448 27.2228 9.68587 26.9836C9.8502 26.6295 10.2661 26.4708 10.6245 26.6236L23.664 23.6946C22.4529 16.7788 21.6359 12.2223 21.482 11.5268C21.4305 11.3968 21.4155 11.2503 21.4409 11.114C21.4603 11.0013 21.507 10.8983 21.5721 10.81C21.665 10.5885 22.0343 9.65725 22.3551 8.82757C22.4733 8.52204 22.7824 8.33393 23.1086 8.37018C23.434 8.40632 23.6938 8.65773 23.7438 8.98126L26.1684 25.137C26.2075 25.3961 26.1027 25.6564 25.8958 25.8163C25.7851 25.9018 25.6544 25.9521 25.5197 25.9641C25.5247 26.196 25.4178 26.4193 25.2276 26.5601C25.008 26.7226 24.715 26.7475 24.471 26.6238L10.0152 27.9336C9.90303 27.8773 9.81217 27.795 9.74539 27.6977Z" fill="white"/>
<path d="M9.34172 25.8277C9.16711 25.6355 9.10213 25.3552 9.19713 25.0934C9.33453 24.7187 9.62824 24.5835 10.1245 24.5835L25.4914 24.6626L25.2275 6.11542C25.2222 5.71608 25.5412 5.38802 25.9402 5.38219C26.3388 5.37688 26.6677 5.69488 26.673 6.09439L26.9521 25.691C26.9556 25.9289 26.842 26.1533 26.6475 26.2908C26.4541 26.4285 26.2047 26.4615 25.9812 26.3803L9.62824 26.0204C9.51548 25.979 9.41766 25.9113 9.34172 25.8277Z" fill="white"/>
<path d="M41.4114 22.8909C41.5441 23.0991 41.5659 23.3714 41.4464 23.6066C41.27 23.9549 40.8489 24.0992 40.496 23.9342L27.3637 26.4144C28.337 33.3677 28.9972 37.9496 29.1272 38.6499C29.1742 38.7816 29.1842 38.9285 29.1541 39.0639C29.1308 39.1758 29.0807 39.2771 29.0125 39.3632C28.9122 39.5814 28.5112 40.4994 28.1621 41.3176C28.0335 41.6189 27.7181 41.7963 27.3933 41.7489C27.0694 41.7016 26.8183 41.4414 26.7795 41.1164L24.9102 24.887C24.8801 24.6267 24.9937 24.3702 25.2059 24.2175C25.3196 24.1358 25.4519 24.09 25.5869 24.0826C25.5899 23.8507 25.7044 23.6312 25.8993 23.497C26.1243 23.3421 26.418 23.3273 26.6576 23.4592L41.1498 22.6459C41.26 22.706 41.348 22.7914 41.4114 22.8909Z" fill="white"/>
<path d="M41.7504 24.7722C41.9183 24.9703 41.9736 25.2527 41.8697 25.511C41.7195 25.8809 41.4214 26.0059 40.9254 25.9889L25.5703 25.3829L25.198 43.9283C25.1897 44.3275 24.8596 44.6445 24.4606 44.6366C24.0621 44.6283 23.7442 44.2992 23.7527 43.8997L24.1457 24.3051C24.1503 24.0672 24.2715 23.8468 24.4707 23.716C24.6686 23.585 24.919 23.5606 25.1396 23.6495L41.4706 24.5698C41.5819 24.6151 41.6773 24.6861 41.7504 24.7722Z" fill="white"/>
</svg>
