<svg width="24" height="24" viewBox="0 0 24 24" fill="none" xmlns="http://www.w3.org/2000/svg">
<path d="M23.0742 19.6582L18.1055 14.625C18.9141 13.2129 19.3359 11.6426 19.3359 10.0605C19.3359 4.92773 15.1641 0.75 10.043 0.75C4.92188 0.75 0.75 4.92773 0.75 10.0605C0.75 15.1934 4.92188 19.3711 10.043 19.3711C11.6777 19.3711 13.2949 18.9199 14.7363 18.0586L19.6816 23.0742C19.793 23.1855 19.9512 23.2559 20.1094 23.2559C20.2676 23.2559 20.4258 23.1914 20.5371 23.0742L23.0742 20.5078C23.3086 20.2676 23.3086 19.8926 23.0742 19.6582ZM10.043 4.37695C13.1719 4.37695 15.7148 6.92578 15.7148 10.0605C15.7148 13.1953 13.1719 15.7441 10.043 15.7441C6.91406 15.7441 4.37109 13.1953 4.37109 10.0605C4.37109 6.92578 6.91406 4.37695 10.043 4.37695Z" fill="#2B2B2B"/>
</svg>
