<svg width="64" height="64" viewBox="0 0 64 64" fill="none" xmlns="http://www.w3.org/2000/svg">
<circle cx="32.0898" cy="31.9101" r="31.9101" fill="white"/>
<ellipse cx="32.7409" cy="32.5615" rx="19.5368" ry="18.2344" fill="#2B2B2B"/>
<g clip-path="url(#clip0_613_9741)">
<path d="M11.9014 13.0244V53.4005H52.2774V13.0244H11.9014ZM29.8246 23.8208C30.9679 23.8089 32.086 23.9357 32.6315 23.9514C34.6537 24.0096 35.0108 25.0324 34.985 25.8736C34.9471 27.1056 34.1545 32.3173 35.6233 32.8255C37.7635 31.6811 39.1987 28.1265 40.2439 25.8736C40.7726 24.734 40.689 24.6774 41.9073 24.6759L46.7474 24.6685C47.9129 24.6671 47.8674 24.6262 48.2408 25.1022C49.1092 26.2095 45.5004 30.8153 44.3348 32.0887C42.1838 34.4388 43.4387 35.3489 43.7852 35.6719C45.3905 37.1686 46.9416 38.7206 47.9056 40.1521C48.672 41.2901 48.3555 42.3496 47.3807 42.3897L42.1907 42.6041C40.4685 42.6749 37.7906 39.5876 37.3631 38.915C37.0174 38.3601 35.3514 37.6647 35.1945 39.0825L34.9751 41.0613C34.8158 42.4759 33.7714 42.4429 32.947 42.4783C27.2382 42.724 25.294 40.5505 22.4192 37.3426C20.3122 34.3628 18.3015 31.3659 16.6354 27.7759C16.1366 26.7013 15.8725 25.913 15.8049 25.0775C16.6432 24.4222 19.5858 24.7045 21.5616 24.661C22.102 24.6491 22.4666 24.9587 22.7519 25.5753C23.865 27.9815 25.0789 30.3443 26.685 32.4336C27.3845 33.0779 28.0029 33.3148 28.3115 32.0048C28.4907 31.9883 28.4763 29.819 28.4865 28.1826C28.4934 27.059 28.3614 25.7115 26.4583 25.0898C26.8433 24.0808 28.3548 23.836 29.8246 23.8208Z" fill="white"/>
</g>
<defs>
<clipPath id="clip0_613_9741">
<rect width="40.3761" height="40.3761" fill="white" transform="translate(11.9014 13.0244)"/>
</clipPath>
</defs>
</svg>
