<svg width="49" height="50" viewBox="0 0 49 50" fill="none" xmlns="http://www.w3.org/2000/svg">
<circle cx="24.5" cy="24.9551" r="24.5" fill="white"/>
<ellipse cx="25" cy="25.4551" rx="15" ry="14" fill="#5386E4"/>
<g clip-path="url(#clip0_431_14747)">
<path d="M9 10.4551V41.4551H40V10.4551H9ZM22.7612 18.7443C23.6389 18.7352 24.4974 18.8325 24.9163 18.8446C26.4688 18.8893 26.743 19.6746 26.7232 20.3204C26.6941 21.2664 26.0855 25.2678 27.2132 25.658C28.8565 24.7793 29.9584 22.0502 30.7609 20.3204C31.1668 19.4455 31.1026 19.402 32.038 19.4009L35.7541 19.3952C36.649 19.3941 36.6141 19.3627 36.9007 19.7282C37.5675 20.5783 34.7967 24.1146 33.9018 25.0923C32.2503 26.8967 33.2138 27.5954 33.4798 27.8434C34.7123 28.9925 35.9032 30.1842 36.6434 31.2832C37.2319 32.1569 36.9888 32.9704 36.2404 33.0012L32.2556 33.1658C30.9333 33.2202 28.8773 30.8498 28.5491 30.3334C28.2837 29.9074 27.0045 29.3735 26.884 30.462L26.7156 31.9813C26.5933 33.0674 25.7914 33.042 25.1584 33.0692C20.7753 33.2579 19.2826 31.5891 17.0754 29.1261C15.4577 26.8383 13.9139 24.5374 12.6347 21.781C12.2518 20.956 12.049 20.3507 11.997 19.7092C12.6407 19.2061 14.9 19.4228 16.417 19.3894C16.8319 19.3803 17.1118 19.618 17.3308 20.0914C18.1854 21.9388 19.1174 23.753 20.3506 25.3571C20.8877 25.8517 21.3624 26.0336 21.5994 25.0279C21.737 25.0152 21.7259 23.3497 21.7337 22.0932C21.7391 21.2305 21.6377 20.196 20.1766 19.7187C20.4721 18.9439 21.6327 18.756 22.7612 18.7443Z" fill="white"/>
</g>
<defs>
<clipPath id="clip0_431_14747">
<rect width="31" height="31" fill="white" transform="translate(9 10.4551)"/>
</clipPath>
</defs>
</svg>
