<svg width="108" height="84" viewBox="0 0 108 84" fill="none" xmlns="http://www.w3.org/2000/svg">
<path d="M8.04827 44.2784L24.8317 20.0357H35.0878L71.4522 48.008L78.9115 40.5487C78.9115 40.5487 68.5496 35.3423 64.9253 29.3598C60.7361 22.4448 62.1281 8.84673 62.1281 8.84673C62.1281 8.84673 64.0371 6.0495 65.8578 6.0495C67.6784 6.0495 69.5874 8.84673 69.5874 8.84673C69.5874 8.84673 68.5042 19.7526 72.3846 24.6977C76.1055 29.4395 86.3708 31.2246 86.3708 31.2246L82.6412 20.0357L101.289 6.98191C101.289 6.98191 105.796 5.98508 106.884 7.91432C107.796 9.53155 105.951 12.5764 105.951 12.5764L92.8977 24.6977L101.289 37.7515L100.357 43.3459L82.6412 60.1293C82.6412 60.1293 80.0828 62.6397 77.9791 62.9266C75.2314 63.3013 71.4522 60.1293 71.4522 60.1293L36.0206 32.157L27.6289 46.1432C27.6289 46.1432 34.8282 54.0854 37.8854 60.1293C41.6334 67.5388 43.4799 80.6424 43.4799 80.6424C43.4799 80.6424 42.212 83.2211 40.6827 83.4396C38.8803 83.6971 36.953 80.6424 36.953 80.6424C36.953 80.6424 35.7511 72.2491 33.2234 67.5886C30.3973 62.3781 22.9668 56.3997 22.9668 56.3997V63.859L6.18345 82.5072C6.18345 82.5072 2.80878 83.7946 1.52139 82.5072C0.234001 81.2198 1.52139 77.8452 1.52139 77.8452L12.7103 63.859L8.04827 44.2784Z" fill="#000"/>
<path d="M34.3479 14.9775C38.0745 17.1053 42.8233 15.8062 44.9515 12.0798C47.0759 8.34878 45.7735 3.60455 42.0475 1.47678C38.3178 -0.649105 33.5721 0.64979 31.4474 4.37764C29.3226 8.10716 30.6186 12.8512 34.3479 14.9775Z" fill="#000"/>
<path d="M56.7258 76.5166C60.4524 78.6444 65.2012 77.3453 67.3294 73.6189C69.4538 69.8879 68.1514 65.1437 64.4254 63.0159C60.6957 60.89 55.95 62.1889 53.8254 65.9168C51.7005 69.6463 52.9965 74.3903 56.7258 76.5166Z" fill="#000"/>
</svg>
