<svg width="82" height="84" viewBox="0 0 82 84" fill="none" xmlns="http://www.w3.org/2000/svg">
<path d="M38.4785 17.1936C39.49 17.8753 40.6355 18.3456 41.8312 18.579L41.8436 18.5819C44.8061 19.1572 47.9219 18.2031 50.0583 16.0724C52.2254 13.9087 53.1771 10.7111 52.5469 7.71483C51.931 4.79585 49.8667 2.29737 47.1109 1.15108C44.2923 -0.0218807 41.0058 0.303174 38.4731 2.00947C35.9405 3.71576 34.4069 6.64086 34.4349 9.69519C34.4632 12.679 36.0057 15.5292 38.4785 17.1936Z" fill="#000"/>
<path d="M77.1057 18.9925C76.6222 18.8609 76.1217 18.7951 75.621 18.7951C74.4446 18.7951 73.3165 18.8026 72.22 19.3067C72.0418 19.3885 71.8681 19.4798 71.6997 19.5798C71.5693 19.657 71.4859 19.7232 71.3779 19.7533C70.7538 19.7521 69.7781 19.7501 69.4967 19.7541C68.7031 19.7541 67.9236 20.0285 67.3061 20.5267C67.1841 20.6245 67.1142 20.7782 66.9563 20.7686C66.7117 20.7531 66.4665 20.7379 66.2214 20.7227C63.355 20.5435 60.489 20.3643 57.6222 20.185C53.6848 19.9392 49.747 19.6932 45.8101 19.4472C43.3976 19.2964 40.99 18.9949 38.5742 18.9949C34.9575 18.9949 33.3585 20.1034 32.7413 20.4676C30.7839 21.6244 29.3501 23.4121 28.5314 25.5213C27.4474 28.3146 26.3628 31.1081 25.2791 33.9022C24.183 36.7249 22.7188 39.4886 21.6227 42.3113C21.5992 42.3736 21.5749 42.4358 21.551 42.4973C21.4233 42.8276 21.3194 43.1669 21.2206 43.5066C20.693 45.323 21.1747 45.5372 20.8384 46.5032C20.5003 47.5999 20.6392 47.1478 20.3011 48.2447C19.2082 51.7907 18.1097 55.3347 17.0026 58.8763C16.7544 59.6712 16.2592 61.2625 16.2592 61.2625C16.2592 61.2625 15.864 61.6795 15.7466 61.7982C15.3891 62.1596 15.0279 62.5183 14.6651 62.874C13.2576 64.2538 11.8274 65.6108 10.3932 66.9622C7.86129 69.3478 5.30729 71.7085 2.7519 74.0685C2.29267 74.4924 1.82871 74.9115 1.37442 75.3401C0.316458 76.3241 -0.182882 77.8133 0.0607611 79.2366C0.564053 82.1795 3.97802 83.7494 6.53835 82.2208C7.11298 81.8777 7.63978 81.4323 8.17627 81.0352C9.46839 80.0794 10.7597 79.1234 12.0514 78.1674C15.0463 75.9382 18.0366 73.7002 20.9821 71.4064C22.1066 70.5308 23.2414 69.661 24.3016 68.708C25.8466 67.319 27.2122 64.042 27.7284 62.8732C28.5597 60.9894 29.3707 59.0958 30.1907 57.2069C33.2581 59.1598 42.5258 65.1875 42.5258 65.1875C42.5258 65.1875 44.2094 70.3178 44.7662 72.1664C45.2776 73.8642 45.772 75.5669 46.266 77.2699C46.5911 78.392 46.8434 79.5614 47.2505 80.6568C48.2875 83.4459 51.922 84.364 54.1592 82.4008C55.1881 81.4981 55.74 80.1307 55.6197 78.7663C55.5136 77.5684 55.2699 76.3723 55.0879 75.1842C54.5315 71.5479 53.9703 67.9098 53.2767 64.2965C52.9673 62.6833 52.6932 60.9975 52.0741 59.4677C51.7623 58.6978 51.5106 58.0722 47.9689 55.0999L40.4735 48.946L44.0254 39.7939C44.5226 40.2681 45.0187 40.7429 45.5147 41.2174C46.497 42.1572 47.8624 42.4328 49.1542 42.0736C49.975 41.845 50.796 41.6165 51.6169 41.3873C52.0919 41.2553 52.5608 41.365 53.0499 41.2688C53.4354 41.1925 53.8172 41.0919 54.1995 41.0026C54.3056 40.9777 54.7321 40.8698 54.9803 40.8064C55.1034 40.8487 55.5209 40.9876 55.9157 41.067C56.7227 41.2294 57.5467 41.2004 58.3472 41.0139C59.4555 40.7556 60.5115 40.4936 61.4363 39.7836C63.7257 38.0241 64.293 34.6977 62.7087 32.2804C61.955 31.1306 60.7767 30.2855 59.447 29.9367C58.2587 29.6245 57.1422 29.8132 55.9744 30.0851C55.3516 30.2301 54.7548 30.4275 54.1991 30.7512C53.8703 30.9431 53.5615 31.1683 53.2791 31.4223C53.1513 31.5375 53.0287 31.6594 52.9122 31.786C52.4622 31.8795 51.4787 32.1099 51.2001 32.1749C50.9887 32.2239 50.7806 32.2787 50.5785 32.3591C50.3925 32.4332 50.3508 32.5383 50.2388 32.3868C49.4747 31.3497 48.7098 30.3125 47.9452 29.2753C50.4129 29.1212 52.8799 28.9669 55.3464 28.8127C58.8511 28.5938 62.3559 28.3746 65.8606 28.1559C66.2137 28.1336 66.5668 28.1114 66.9203 28.0895C67.1063 28.0777 67.1476 28.2017 67.3059 28.3288C67.9234 28.8274 68.7029 29.1014 69.4965 29.1014L71.4219 29.1008C71.4859 29.1441 71.55 29.187 71.6156 29.2273C71.81 29.3474 72.012 29.4536 72.2196 29.5492C73.3114 30.0509 74.4468 30.0699 75.6206 30.0608C78.4016 30.0608 80.8323 27.9447 81.2028 25.1854C81.5751 22.4215 79.7996 19.7262 77.1057 18.9925Z" fill="#000"/>
</svg>
