<svg width="168" height="68" viewBox="0 0 168 68" fill="none" xmlns="http://www.w3.org/2000/svg">
<path d="M167.233 34C167.233 38.5152 164.978 42.8654 160.797 46.8734C156.614 50.8826 150.535 54.5162 142.982 57.5783C127.878 63.7014 106.978 67.5 83.8667 67.5C60.7556 67.5 39.8555 63.7014 24.7518 57.5783C17.1987 54.5162 11.1195 50.8826 6.93664 46.8734C2.75508 42.8654 0.5 38.5152 0.5 34C0.5 29.4848 2.75508 25.1346 6.93664 21.1266C11.1195 17.1174 17.1987 13.4838 24.7518 10.4217C39.8555 4.29861 60.7556 0.5 83.8667 0.5C106.978 0.5 127.878 4.29861 142.982 10.4217C150.535 13.4838 156.614 17.1174 160.797 21.1266C164.978 25.1346 167.233 29.4848 167.233 34Z" stroke="#2B2B2B"/>
<path d="M140.033 34C140.033 43.1417 133.793 51.5059 123.514 57.6118C113.247 63.7112 99.0301 67.5 83.2997 67.5C67.5694 67.5 53.3525 63.7112 43.085 57.6118C32.8068 51.5059 26.5664 43.1417 26.5664 34C26.5664 24.8583 32.8068 16.4941 43.085 10.3882C53.3525 4.28876 67.5694 0.5 83.2997 0.5C99.0301 0.5 113.247 4.28876 123.514 10.3882C133.793 16.4941 140.033 24.8583 140.033 34Z" stroke="#2B2B2B"/>
<path d="M111.7 34C111.7 52.5908 99.157 67.5 83.8665 67.5C68.5761 67.5 56.0332 52.5908 56.0332 34C56.0332 15.4092 68.5761 0.5 83.8665 0.5C99.157 0.5 111.7 15.4092 111.7 34Z" stroke="#2B2B2B"/>
<line y1="33.5" x2="167.733" y2="33.5" stroke="#2B2B2B"/>
<line x1="12.4668" y1="16.5" x2="155.267" y2="16.5" stroke="#2B2B2B"/>
<line x1="84.3662" y1="-2.18557e-08" x2="84.3662" y2="68" stroke="#2B2B2B"/>
<line x1="10.2002" y1="49.3662" x2="158.667" y2="49.3662" stroke="#2B2B2B"/>
</svg>
