<svg width="107" height="84" viewBox="0 0 107 84" fill="none" xmlns="http://www.w3.org/2000/svg">
<path d="M7.09905 44.2784L23.8825 20.0357H34.1386L70.503 48.008L77.9623 40.5487C77.9623 40.5487 67.6004 35.3423 63.9761 29.3598C59.7869 22.4448 61.1789 8.84676 61.1789 8.84676C61.1789 8.84676 63.0879 6.04953 64.9085 6.04953C66.7292 6.04953 68.6382 8.84676 68.6382 8.84676C68.6382 8.84676 67.555 19.7526 71.4354 24.6978C75.1563 29.4396 85.4216 31.2246 85.4216 31.2246L81.6919 20.0357L100.34 6.98194C100.34 6.98194 104.847 5.98511 105.935 7.91435C106.847 9.53158 105.002 12.5764 105.002 12.5764L91.9485 24.6978L100.34 37.7515L99.4077 43.346L81.6919 60.1294C81.6919 60.1294 79.1336 62.6397 77.0299 62.9266C74.2822 63.3013 70.503 60.1294 70.503 60.1294L35.0714 32.157L26.6797 46.1432C26.6797 46.1432 33.8789 54.0854 36.9362 60.1294C40.6842 67.5388 42.5307 80.6424 42.5307 80.6424C42.5307 80.6424 41.2628 83.2212 39.7334 83.4397C37.9311 83.6971 36.0038 80.6424 36.0038 80.6424C36.0038 80.6424 34.8019 72.2491 32.2742 67.5887C29.4481 62.3781 22.0176 56.3997 22.0176 56.3997V63.859L5.23423 82.5072C5.23423 82.5072 1.85956 83.7946 0.572174 82.5072C-0.715217 81.2198 0.572174 77.8452 0.572174 77.8452L11.7611 63.859L7.09905 44.2784Z" fill="#000"/>
<path d="M33.3987 14.9775C37.1252 17.1053 41.8741 15.8062 44.0023 12.0798C46.1267 8.34878 44.8242 3.60455 41.0983 1.47678C37.3685 -0.649105 32.6228 0.64979 30.4982 4.37764C28.3734 8.10716 29.6693 12.8512 33.3987 14.9775Z" fill="#000"/>
<path d="M55.7766 76.5166C59.5032 78.6444 64.252 77.3452 66.3802 73.6189C68.5046 69.8879 67.2022 65.1436 63.4762 63.0159C59.7465 60.89 55.0008 62.1889 52.8761 65.9167C50.7513 69.6463 52.0473 74.3903 55.7766 76.5166Z" fill="#000"/>
<path d="M77.0601 43.1304L76.6661 44.0496L77.0601 43.1304ZM69.6023 36.5395L69.1217 37.4164L69.6023 36.5395ZM60.1389 32.8067C59.592 32.7299 59.0864 33.111 59.0096 33.6579C58.9328 34.2048 59.3139 34.7105 59.8608 34.7872L60.1389 32.8067ZM88.0525 43.6909C87.8936 42.7036 87.8938 42.7036 87.8939 42.7036C87.8939 42.7036 87.8939 42.7036 87.8939 42.7036C87.8939 42.7036 87.8938 42.7036 87.8936 42.7036C87.8932 42.7037 87.8923 42.7038 87.891 42.704C87.8885 42.7044 87.8843 42.7051 87.8784 42.706C87.8667 42.7078 87.8485 42.7106 87.824 42.7143C87.7751 42.7216 87.7014 42.7324 87.6053 42.7457C87.4131 42.7723 87.1316 42.8088 86.7807 42.8475C86.0778 42.9252 85.101 43.0115 84.0061 43.0462C81.7719 43.1171 79.2141 42.9657 77.4541 42.2113L76.6661 44.0496C78.8568 44.9886 81.7952 45.1174 84.0695 45.0452C85.2289 45.0084 86.2594 44.9173 87.0003 44.8354C87.3712 44.7945 87.6708 44.7557 87.8791 44.7269C87.9832 44.7125 88.0647 44.7006 88.1208 44.6922C88.1489 44.6879 88.1707 44.6846 88.1859 44.6822C88.1935 44.681 88.1994 44.6801 88.2037 44.6794C88.2058 44.6791 88.2075 44.6788 88.2088 44.6786C88.2094 44.6785 88.21 44.6784 88.2104 44.6784C88.2106 44.6783 88.2108 44.6783 88.2109 44.6783C88.2111 44.6783 88.2113 44.6782 88.0525 43.6909ZM77.4541 42.2113C75.9088 41.549 75.0265 40.5398 74.0464 39.3313C73.0739 38.1324 71.9867 36.706 70.083 35.6626L69.1217 37.4164C70.6264 38.2411 71.4819 39.3445 72.4931 40.5912C73.4965 41.8284 74.6389 43.1806 76.6661 44.0496L77.4541 42.2113ZM70.083 35.6626C68.2447 34.655 65.7298 33.9453 63.7416 33.4905C62.7344 33.2601 61.8373 33.0897 61.1915 32.9768C60.8684 32.9203 60.6074 32.8781 60.4263 32.8499C60.3357 32.8357 60.265 32.8251 60.2164 32.8179C60.192 32.8143 60.1733 32.8116 60.1603 32.8097C60.1538 32.8088 60.1487 32.8081 60.1452 32.8076C60.1434 32.8073 60.142 32.8071 60.1409 32.807C60.1404 32.8069 60.14 32.8068 60.1396 32.8068C60.1395 32.8068 60.1393 32.8067 60.1392 32.8067C60.1391 32.8067 60.1389 32.8067 59.9999 33.797C59.8608 34.7872 59.8607 34.7872 59.8607 34.7872C59.8607 34.7872 59.8607 34.7872 59.8607 34.7872C59.8607 34.7872 59.8609 34.7873 59.8611 34.7873C59.8616 34.7873 59.8624 34.7875 59.8636 34.7876C59.866 34.788 59.8699 34.7885 59.8752 34.7893C59.8858 34.7908 59.9021 34.7932 59.9239 34.7964C59.9676 34.8029 60.033 34.8127 60.1182 34.826C60.2885 34.8525 60.5372 34.8928 60.8471 34.9469C61.4674 35.0554 62.3297 35.2192 63.2956 35.4401C65.2537 35.888 67.54 36.5495 69.1217 37.4164L70.083 35.6626Z" fill="#000"/>
<path d="M36.0601 54.1304L35.6661 55.0496L36.0601 54.1304ZM28.6023 47.5395L28.1217 48.4164L28.6023 47.5395ZM19.1389 43.8067C18.592 43.7299 18.0864 44.111 18.0096 44.6579C17.9328 45.2048 18.3139 45.7105 18.8608 45.7872L19.1389 43.8067ZM47.0525 54.6909C46.8936 53.7036 46.8938 53.7036 46.8939 53.7036C46.8939 53.7036 46.8939 53.7036 46.8939 53.7036C46.8939 53.7036 46.8938 53.7036 46.8936 53.7036C46.8932 53.7037 46.8923 53.7038 46.891 53.704C46.8885 53.7044 46.8843 53.7051 46.8784 53.706C46.8667 53.7078 46.8485 53.7106 46.824 53.7143C46.7751 53.7216 46.7014 53.7324 46.6053 53.7457C46.4131 53.7723 46.1316 53.8088 45.7807 53.8475C45.0778 53.9252 44.101 54.0115 43.0061 54.0462C40.7719 54.1171 38.2141 53.9657 36.4541 53.2113L35.6661 55.0496C37.8568 55.9886 40.7952 56.1174 43.0695 56.0452C44.2289 56.0084 45.2594 55.9173 46.0003 55.8354C46.3712 55.7945 46.6708 55.7557 46.8791 55.7269C46.9832 55.7125 47.0647 55.7006 47.1208 55.6922C47.1489 55.6879 47.1707 55.6846 47.1859 55.6822C47.1935 55.681 47.1994 55.6801 47.2037 55.6794C47.2058 55.6791 47.2075 55.6788 47.2088 55.6786C47.2094 55.6785 47.21 55.6784 47.2104 55.6784C47.2106 55.6783 47.2108 55.6783 47.2109 55.6783C47.2111 55.6783 47.2113 55.6782 47.0525 54.6909ZM36.4541 53.2113C34.9088 52.549 34.0265 51.5398 33.0464 50.3313C32.0739 49.1324 30.9867 47.706 29.083 46.6626L28.1217 48.4164C29.6264 49.2411 30.4819 50.3445 31.4931 51.5912C32.4965 52.8284 33.6389 54.1806 35.6661 55.0496L36.4541 53.2113ZM29.083 46.6626C27.2447 45.655 24.7298 44.9453 22.7416 44.4905C21.7344 44.2601 20.8373 44.0897 20.1915 43.9768C19.8684 43.9203 19.6074 43.8781 19.4263 43.8499C19.3357 43.8357 19.265 43.8251 19.2164 43.8179C19.192 43.8143 19.1733 43.8116 19.1603 43.8097C19.1538 43.8088 19.1487 43.8081 19.1452 43.8076C19.1434 43.8073 19.142 43.8071 19.1409 43.807C19.1404 43.8069 19.14 43.8068 19.1396 43.8068C19.1395 43.8068 19.1393 43.8067 19.1392 43.8067C19.1391 43.8067 19.1389 43.8067 18.9999 44.797C18.8608 45.7872 18.8607 45.7872 18.8607 45.7872C18.8607 45.7872 18.8607 45.7872 18.8607 45.7872C18.8607 45.7872 18.8609 45.7873 18.8611 45.7873C18.8616 45.7873 18.8624 45.7875 18.8636 45.7876C18.866 45.788 18.8699 45.7885 18.8752 45.7893C18.8858 45.7908 18.9021 45.7932 18.9239 45.7964C18.9676 45.8029 19.033 45.8127 19.1182 45.826C19.2885 45.8525 19.5372 45.8928 19.8471 45.9469C20.4674 46.0554 21.3297 46.2192 22.2956 46.4401C24.2537 46.888 26.54 47.5495 28.1217 48.4164L29.083 46.6626Z" fill="#000"/>
<path d="M19.2864 43.5081L19.922 44.2801L19.2864 43.5081ZM10.007 47.1069L10.5653 47.9365L10.007 47.1069ZM2.34573 53.7998C2.02638 54.2504 2.13279 54.8746 2.58338 55.1939C3.03398 55.5132 3.65814 55.4068 3.97749 54.9562L2.34573 53.7998ZM24.8315 34.0003C23.8815 33.6881 23.8816 33.6879 23.8816 33.6878C23.8816 33.6878 23.8816 33.6878 23.8816 33.6878C23.8816 33.6878 23.8816 33.6879 23.8815 33.6881C23.8814 33.6885 23.8811 33.6893 23.8807 33.6906C23.8799 33.693 23.8785 33.6971 23.8767 33.7027C23.8729 33.7139 23.867 33.7314 23.8591 33.7548C23.8431 33.8016 23.8189 33.8721 23.7865 33.9635C23.7219 34.1465 23.6251 34.4133 23.4984 34.7428C23.2446 35.4029 22.8727 36.3103 22.4009 37.2989C21.438 39.3162 20.1291 41.5189 18.6508 42.7361L19.922 44.2801C21.7621 42.7651 23.2257 40.2139 24.2058 38.1604C24.7055 37.1135 25.0977 36.1562 25.3652 35.4605C25.4991 35.1122 25.6022 34.8282 25.6722 34.63C25.7073 34.5309 25.7341 34.4531 25.7524 34.3993C25.7615 34.3724 25.7686 34.3515 25.7734 34.3369C25.7759 34.3296 25.7778 34.3239 25.7791 34.3198C25.7798 34.3178 25.7803 34.3162 25.7808 34.3149C25.781 34.3143 25.7811 34.3138 25.7813 34.3134C25.7813 34.3132 25.7814 34.313 25.7814 34.3129C25.7815 34.3127 25.7816 34.3125 24.8315 34.0003ZM18.6508 42.7361C17.3528 43.8047 16.0512 44.1251 14.5277 44.4409C13.0161 44.7543 11.2497 45.0651 9.44864 46.2773L10.5653 47.9365C11.9888 46.9785 13.3618 46.7252 14.9337 46.3993C16.4935 46.0759 18.2193 45.682 19.922 44.2801L18.6508 42.7361ZM9.44864 46.2773C7.70953 47.4477 5.92427 49.356 4.6074 50.9133C3.9403 51.7023 3.377 52.421 2.9802 52.9428C2.78163 53.204 2.6243 53.4164 2.51602 53.5644C2.46187 53.6384 2.41996 53.6963 2.39126 53.7362C2.37691 53.7561 2.36586 53.7716 2.35823 53.7822C2.35442 53.7876 2.35146 53.7917 2.34937 53.7947C2.34832 53.7961 2.3475 53.7973 2.34689 53.7982C2.34659 53.7986 2.34634 53.7989 2.34614 53.7992C2.34605 53.7994 2.34594 53.7995 2.34589 53.7996C2.3458 53.7997 2.34573 53.7998 3.16161 54.378C3.97749 54.9562 3.97744 54.9563 3.9774 54.9564C3.97741 54.9564 3.97739 54.9564 3.9774 54.9564C3.97743 54.9563 3.97751 54.9562 3.97764 54.956C3.97791 54.9556 3.9784 54.955 3.9791 54.954C3.98051 54.952 3.98278 54.9488 3.98589 54.9444C3.99212 54.9357 4.00174 54.9223 4.01461 54.9044C4.04037 54.8686 4.07918 54.815 4.13006 54.7454C4.23184 54.6063 4.38181 54.4038 4.57222 54.1534C4.95339 53.6521 5.49479 52.9614 6.13461 52.2047C7.43156 50.6709 9.06898 48.9436 10.5653 47.9365L9.44864 46.2773Z" fill="#000"/>
</svg>
