<svg width="107" height="84" viewBox="0 0 107 84" fill="none" xmlns="http://www.w3.org/2000/svg">
<path d="M44.4976 15.4704C48.3507 17.6704 53.2607 16.3272 55.4611 12.4743C57.6576 8.6167 56.311 3.71145 52.4586 1.51146C48.6022 -0.686583 43.6955 0.656399 41.4987 4.51078C39.3018 8.36689 40.6417 13.2719 44.4976 15.4704Z" fill="#000"/>
<path d="M105.958 5.85858C105.598 5.2722 104.837 5.08527 104.251 5.44048L75.6299 22.8153L73.8567 20.3347C73.297 19.5525 72.2088 19.3706 71.4285 19.9303C70.6448 20.4893 70.4646 21.5758 71.0239 22.358L71.7768 23.4123L59.2565 26.1124L50.3047 24.0974C49.7131 22.9448 48.7984 21.9399 47.5875 21.2496L45.0202 19.7841C43.0737 18.6738 40.6627 18.6482 39.0764 19.2858L23.9749 25.3605C23.6129 25.5069 23.2779 25.7093 22.9786 25.961L8.74753 37.9984C7.20569 39.3026 7.01356 41.6097 8.31751 43.152C9.04158 44.007 10.0721 44.4459 11.111 44.4459C11.9457 44.4459 12.7841 44.1616 13.4708 43.582L27.2513 31.9254L30.9886 30.4222C30.9886 30.4222 15.5197 59.1203 14.7683 60.6508L1.42629 74.7761C-0.554458 76.8727 -0.460994 80.178 1.63708 82.1587C3.73168 84.1412 7.04045 84.0458 9.01925 81.9477L22.9034 67.2493C23.2638 66.87 23.5631 66.4365 23.794 65.9675L29.9813 53.3736C32.574 54.9938 23.1684 49.1434 46.5655 63.6905L46.8034 78.4468C46.8511 81.3017 49.1788 83.585 52.0252 83.585C52.0543 83.585 52.0831 83.585 52.1118 83.585C54.9953 83.5375 57.2955 81.1621 57.2497 78.2768L56.9641 60.6743C56.9353 58.8993 56.0071 57.2623 54.4989 56.3233L40.5111 47.625L49.7281 31.4626L58.4368 33.423C58.9314 33.5351 59.4755 33.5436 60.0094 33.4295L67.4512 31.8248C68.4884 33.1901 70.4249 33.4792 71.8072 32.4589L76.0207 29.3489L77.8242 31.872C78.3857 32.6575 79.4739 32.8347 80.2522 32.2771C81.0361 31.7174 81.2165 30.631 80.6568 29.849L78.8226 27.2834L105.632 7.50104C106.142 7.12197 106.292 6.40961 105.958 5.85858Z" fill="#000"/>
</svg>
