<svg width="79" height="85" viewBox="0 0 79 85" fill="none" xmlns="http://www.w3.org/2000/svg">
<path d="M38.8044 11.2818C41.0812 12.5818 43.9826 11.7881 45.2828 9.51142C46.5808 7.23191 45.785 4.33334 43.5086 3.03334C41.2299 1.7345 38.3305 2.52808 37.0324 4.80567C35.7342 7.08429 36.526 9.98272 38.8044 11.2818Z" fill="#000"/>
<path d="M36.4078 11.9068L26.1186 1.61757C26.1186 1.61757 23.8634 -0.500032 22.4997 0.999969C21.1359 2.49997 22.4997 4.49997 22.4997 4.49997L34.8249 17.4471C34.8249 17.4471 36.5826 30.4341 34.9996 42.5C34.5501 45.9264 26.9996 48 26.9996 48C26.9996 48 24.4996 49 25.4996 51.4807C26.3137 53.5 29.2845 52.2721 29.2845 52.2721C29.2845 52.2721 38.2759 49.7989 39.9996 44.5C40.8602 41.8546 41.1567 37.2341 41.1567 37.2341C41.1567 37.2341 43.9412 38.2401 45.1141 39.6085C48.2946 43.3191 41.1567 51.4807 41.1567 51.4807C41.1567 51.4807 39.9996 53.5 41.9482 54.6466C43.8967 55.7932 45.9055 53.0636 45.9055 53.0636C45.9055 53.0636 53.0384 44.5 50.6544 38.0255C49.7357 35.5304 46.697 32.4852 46.697 32.4852V17.4471L59.3607 3.992C59.3607 3.992 60.9997 1.9937 59.3607 0.826091C57.4997 -0.499585 55.4033 1.61757 55.4033 1.61757L45.9055 11.9068H36.4078Z" fill="#000"/>
<path d="M14.2469 72.0591L9.49805 80.7654M38.7827 74.4336V83.9313M66.4844 72.0591L71.2333 80.7654" stroke="#000" stroke-width="2" stroke-linecap="round"/>
<ellipse cx="40.4506" cy="65.7492" rx="32.4506" ry="4.74887" fill="#000"/>
<path d="M78 66.0003C78 66.304 77.8693 66.6829 77.4535 67.1459C77.0323 67.6149 76.3645 68.1152 75.4216 68.6231C73.5373 69.6382 70.7445 70.5836 67.2086 71.3893C60.1527 72.9969 50.3558 74.0003 39.5 74.0003C28.6442 74.0003 18.8473 72.9969 11.7914 71.3893C8.25547 70.5836 5.46274 69.6382 3.57836 68.6231C2.63549 68.1152 1.96768 67.6149 1.5465 67.1459C1.13067 66.6829 1 66.304 1 66.0003C1 65.6966 1.13067 65.3177 1.5465 64.8547C1.96768 64.3857 2.63549 63.8854 3.57836 63.3775C5.46274 62.3624 8.25547 61.417 11.7914 60.6114C18.8473 59.0037 28.6442 58.0003 39.5 58.0003C50.3558 58.0003 60.1527 59.0037 67.2086 60.6114C70.7445 61.417 73.5373 62.3624 75.4216 63.3775C76.3645 63.8854 77.0323 64.3857 77.4535 64.8547C77.8693 65.3177 78 65.6966 78 66.0003Z" stroke="#000" stroke-width="2"/>
</svg>
