<svg width="84" height="84" viewBox="0 0 84 84" fill="none" xmlns="http://www.w3.org/2000/svg">
<path d="M3.96169 21.3369C4.86593 21.9467 5.88994 22.3674 6.95882 22.5762L6.96994 22.5788C9.6182 23.0934 12.4035 22.24 14.3134 20.3339C16.2507 18.3984 17.1014 15.5381 16.5381 12.8578C15.9875 10.2467 14.1421 8.01176 11.6786 6.98637C9.15892 5.93712 6.22097 6.22789 3.95692 7.75422C1.69287 9.28055 0.321935 11.8971 0.347018 14.6293C0.372278 17.2984 1.75116 19.848 3.96169 21.3369Z" fill="#000"/>
<path d="M17.0001 23C11.8687 27.1776 6.07314 26 6.07314 26C6.07314 26 2.84339 35.9672 6.07314 40.725C8.05983 43.6516 13.4362 46 13.4362 46L23.5001 30.0894H13.4362L14.5001 28.5H27.0001L20.7993 38.2706L26.5261 42L37.1617 26L28.9805 20.272C28.9805 20.272 34.0972 19.7427 37.1617 18.6358C43.3148 16.4132 50.5001 8.50003 50.5001 8.50003C50.5001 8.50003 53.5001 5.17916 51.8878 3.09152C49.5001 3.95775e-05 45.3428 3.09152 45.3428 3.09152C45.3428 3.09152 40.1729 9.45411 35.5254 11.2727C30.1699 13.3683 20.7993 11.2727 20.7993 11.2727C20.7993 11.2727 21.2993 19.5 17.0001 23Z" fill="#000"/>
<path d="M34 34.5C34 34.5 37.9536 40.0026 35.5 43.5C32.4627 47.8294 27.8746 46.0489 24.0718 49.7242C21.5868 52.1258 19.1631 57.0873 19.1631 57.0873" stroke="#000" stroke-width="2" stroke-linecap="round"/>
<path d="M41 39.9067C42.9296 30.1819 38.7979 25.9986 38.7979 25.9986L68.5 2L77.2495 15.3631C77.2495 15.3631 64.9328 20.0378 58.4327 25.1805C52.3985 29.9547 48.7615 33.0133 45.3428 39.9067C43.5473 43.5272 43.0039 45.792 42.0704 49.7241C39.635 59.9823 42.0704 76.722 42.0704 76.722H28.5V50.5422C28.5 50.5422 39.7269 46.3226 41 39.9067Z" fill="#000"/>
<path d="M30 78.5C30 79.2223 30.1423 79.9375 30.4187 80.6048C30.6951 81.272 31.1002 81.8784 31.6109 82.3891C32.1216 82.8998 32.728 83.3049 33.3952 83.5813C34.0625 83.8577 34.7777 84 35.5 84C36.2223 84 36.9375 83.8577 37.6048 83.5813C38.272 83.3049 38.8784 82.8998 39.3891 82.3891C39.8998 81.8784 40.3049 81.272 40.5813 80.6048C40.8577 79.9375 41 79.2223 41 78.5L35.5 78.5L30 78.5Z" fill="#000"/>
<path d="M78.5024 12.2414C79.1144 11.8578 79.6448 11.3574 80.0634 10.7688C80.482 10.1802 80.7806 9.51494 80.9421 8.81096C81.1035 8.10697 81.1248 7.37807 81.0046 6.66587C80.8844 5.95368 80.625 5.27213 80.2414 4.66015C79.8578 4.04817 79.3574 3.51774 78.7688 3.09915C78.1802 2.68055 77.515 2.38199 76.811 2.22051C76.107 2.05902 75.3781 2.03778 74.6659 2.15799C73.9537 2.27821 73.2721 2.53752 72.6602 2.92113L75.5813 7.58128L78.5024 12.2414Z" fill="#000"/>
</svg>
