<svg width="74" height="82" viewBox="0 0 74 82" fill="none" xmlns="http://www.w3.org/2000/svg">
<path d="M67.2604 75.8838L58.6572 79.0122L64.9141 81.3585L67.2604 75.8838Z" fill="#000"/>
<path d="M9.95447 78.0566L1.65896 74.1854L4.42413 80.2687L9.95447 78.0566Z" fill="#000"/>
<path d="M23.659 15.1453C24.5742 15.7621 25.6107 16.1876 26.6926 16.3988L26.7038 16.4015C29.3843 16.9219 32.2035 16.0587 34.1366 14.1308C36.0975 12.173 36.9585 9.27978 36.3884 6.56873C35.8311 3.9276 33.9632 1.66694 31.4698 0.629757C28.9194 -0.43156 25.9458 -0.137445 23.6542 1.40644C21.3626 2.95032 19.975 5.59699 20.0003 8.3606C20.0259 11.0604 21.4216 13.6393 23.659 15.1453Z" fill="#000"/>
<path d="M28.1551 42H20.3341V46.1636C20.3341 46.1636 14.8593 48 10.4998 52.5C4.69512 58.4916 1.56348 70.409 1.56348 70.409L13.9998 75.5C13.9998 75.5 14.9998 68 19.4998 62C21.9393 58.7472 26.4998 56.331 26.4998 56.331V61.0237H28.1551V42Z" fill="#000"/>
<path d="M34.4125 53.2026H30.502V47.6013V42H32.8483V50.8563H35.9767V60.2416H34.4125V53.2026Z" fill="#000"/>
<path d="M35.9766 48.51V42H41.4513V46.1636C41.4513 46.1636 50.7045 47.646 55.5293 50.8563C63.5099 56.1665 68.043 71.9732 68.043 71.9732L55.5293 76.6658C55.5293 76.6658 52.8361 63.0412 46 59C41.9121 56.5834 38.3229 55.5489 38.3229 55.5489V48.51H35.9766Z" fill="#000"/>
<path d="M63 25.2569V19H73.1674L63 25.2569Z" fill="#000"/>
<path d="M61.004 26.611V18.7899H21.1165C21.1165 18.7899 15.5452 21.2917 13.2954 24.2647C11.1382 27.1154 10.167 32.8679 10.167 32.8679H25.8092V28.1752H16.4239V25.8289H32.8481V35H20.5V39.5H41.5V26.611L45.3619 26.611H61.004Z" fill="#000"/>
<path d="M27 33V28H31V33H27Z" fill="#000"/>
</svg>
