<svg width="103" height="84" viewBox="0 0 103 84" fill="none" xmlns="http://www.w3.org/2000/svg">
<path d="M101.58 76.0708L93.3916 58.1535C93.3916 58.1535 96.8345 43.1202 96.8378 42.8977C96.8579 41.6126 96.3693 40.3733 95.4746 39.4517L79.2937 22.7394C79.7672 23.4915 80.1423 24.32 80.3406 25.2399C80.8027 27.3839 80.3342 29.5059 79.2118 31.2L81.6243 41.2443C82.3099 44.1029 80.7058 47.0618 77.9169 48.0294C75.5775 48.832 77.0951 48.3111 68.217 51.3581C66.6144 52.2274 65.5723 53.867 65.4909 55.6954L64.4926 78.0059C64.3635 80.8833 66.5927 83.3194 69.4699 83.4483C69.5478 83.4517 69.6277 83.4532 69.706 83.4532C72.4794 83.4532 74.7866 81.2684 74.912 78.4709L75.7748 59.1751L83.3608 55.2572L82.8295 57.4623C82.556 58.5961 82.6717 59.7896 83.157 60.8506L92.0945 80.4062C93.288 83.017 96.3724 84.1831 99.005 82.9813C101.625 81.7849 102.778 78.69 101.58 76.0708Z" fill="#000"/>
<path d="M69.5094 35.5764L69.4857 38.0579L53.3439 43.5971C51.0744 44.3745 49.8656 46.8464 50.6447 49.1176C51.2629 50.92 52.9484 52.0541 54.7548 52.0541C55.2219 52.0541 55.6988 51.9777 56.1651 51.8163L75.2132 45.2813C76.955 44.6836 78.1315 43.0538 78.1484 41.2122L78.2317 32.3984C77.2013 33.4355 75.8787 34.2027 74.3441 34.5342L69.5094 35.5764Z" fill="#000"/>
<path d="M44.4279 15.4469C47.9807 17.4755 52.4061 16.4585 54.7964 13.2657C55.0749 14.763 55.7739 16.199 56.9134 17.377C59.9959 20.5564 65.0766 20.638 68.2579 17.5553C71.4424 14.4725 71.5219 9.39709 68.4412 6.21222C65.3604 3.02964 60.2812 2.94614 57.0982 6.0289C56.7792 6.33945 56.5124 6.68245 56.2544 7.02858C55.8388 4.78604 54.5095 2.72892 52.3756 1.50992C48.5258 -0.684899 43.6264 0.656103 41.4333 4.50458C39.2403 8.35472 40.5778 13.2521 44.4279 15.4469Z" fill="#000"/>
<path d="M54.4125 56.2352C54.4041 56.2304 40.4554 47.5559 40.4469 47.5507L45.3714 38.9137L47.4017 41.9067C47.6989 42.3443 48.0992 42.6806 48.5222 42.9794C49.4285 41.7824 50.6881 40.8319 52.216 40.3074L60.0705 37.6116L59.7361 37.6849C58.9296 37.8579 58.1268 37.756 57.4274 37.4421L48.5 33.4292L41.5522 30.3054L58.1913 34.0503C58.8247 34.1911 59.463 34.1876 60.0621 34.057L73.6119 31.1356C75.9581 30.6314 77.4483 28.3196 76.9425 25.9718C76.4383 23.6259 74.1364 22.1319 71.7787 22.6411L59.1656 25.3606L43.4601 21.8247L48.5105 21.9285C48.2014 21.6686 47.8757 21.4242 47.5122 21.2172L44.9491 19.754C43.358 18.8475 41.4708 18.608 39.7035 19.0919C37.9365 19.5757 36.4339 20.7418 35.5257 22.3324L14.7448 60.5556L1.4239 74.6587C-0.553486 76.7516 -0.460361 80.0518 1.63464 82.0294C3.72587 84.0086 7.0292 83.9134 9.00512 81.8186L22.8672 67.1434C23.2271 66.765 23.5259 66.332 23.7568 65.8637L29.934 53.2901C29.9476 53.2985 29.9581 53.3104 29.9717 53.319L46.4916 63.5908L46.7294 78.3236C46.7766 81.1739 49.1025 83.4535 51.9425 83.4535C51.9714 83.4535 52.0002 83.4535 52.0291 83.4535C54.9078 83.4062 57.205 81.0343 57.1589 78.1537L56.8735 60.5794C56.845 58.8071 55.9182 57.1725 54.4125 56.2352Z" fill="#000"/>
</svg>
